M48
; DRILL file {KiCad 9.0.4} date 2025-11-05T06:43:52+0900
; FORMAT={-:-/ absolute / metric / decimal}
; #@! TF.CreationDate,2025-11-05T06:43:52+09:00
; #@! TF.GenerationSoftware,Kicad,Pcbnew,9.0.4
; #@! TF.FileFunction,Plated,1,2,PTH
FMAT,2
METRIC
; #@! TA.AperFunction,Plated,PTH,ViaDrill
T1C0.300
; #@! TA.AperFunction,Plated,PTH,ComponentDrill
T2C0.813
; #@! TA.AperFunction,Plated,PTH,ComponentDrill
T3C0.850
; #@! TA.AperFunction,Plated,PTH,ComponentDrill
T4C0.900
; #@! TA.AperFunction,Plated,PTH,ComponentDrill
T5C1.499
%
G90
G05
T1
X85.5Y-109.5
X85.5Y-116.25
X93.5Y-135.75
X99.5Y-89.75
X101.0Y-69.5
X102.0Y-69.5
X103.0Y-69.5
X104.0Y-69.5
X105.0Y-69.5
X106.5Y-86.5
X109.75Y-86.5
X114.25Y-134.0
X114.5Y-117.75
X118.75Y-104.25
X120.0Y-85.75
X120.25Y-106.75
X121.0Y-85.75
X122.0Y-77.25
X122.0Y-85.75
X123.0Y-85.75
X124.0Y-85.75
X124.0Y-104.25
X126.75Y-135.75
X131.5Y-128.75
X131.5Y-129.75
X131.75Y-133.75
X135.25Y-91.75
X138.0Y-105.5
X138.75Y-109.0
X139.0Y-106.5
X140.0Y-105.5
X140.0Y-106.5
X141.0Y-106.5
X142.0Y-105.5
X142.0Y-106.5
X143.0Y-106.5
X154.25Y-111.25
X160.5Y-141.75
X165.25Y-124.0
T2
X102.5Y-105.19
X102.5Y-112.81
X105.0Y-105.19
X105.0Y-112.81
X107.5Y-105.19
X107.5Y-112.81
X110.0Y-105.19
X110.0Y-112.81
X112.5Y-105.69
X112.5Y-113.31
X115.0Y-106.44
X115.0Y-114.06
X117.5Y-107.44
X117.5Y-115.06
X120.0Y-108.44
X120.0Y-116.06
X122.5Y-109.44
X122.5Y-117.06
X125.0Y-110.44
X125.0Y-118.06
X127.5Y-111.19
X127.5Y-118.81
X130.0Y-111.19
X130.0Y-118.81
X132.5Y-111.19
X132.5Y-118.81
X135.0Y-111.19
X135.0Y-118.81
X137.5Y-110.69
X137.5Y-118.31
X140.0Y-110.69
X140.0Y-118.31
X142.5Y-111.69
X142.5Y-119.31
X145.0Y-112.69
X145.0Y-120.31
T3
X89.59Y-117.33
X89.59Y-132.67
X92.13Y-117.33
X92.13Y-132.67
X94.67Y-117.33
X94.67Y-132.67
X97.21Y-117.33
X97.21Y-132.67
X99.75Y-117.33
X99.75Y-132.67
X102.29Y-117.33
X102.29Y-132.67
X104.83Y-117.33
X104.83Y-132.67
X107.37Y-117.33
X107.37Y-132.67
X109.91Y-117.33
X109.91Y-132.67
X109.96Y-119.92
X109.96Y-130.08
X109.96Y-122.46
X109.96Y-127.54
X109.96Y-125.0
T5
X69.42Y-67.46
X69.42Y-72.54
X69.42Y-86.46
X69.42Y-91.54
X69.42Y-105.46
X69.42Y-110.54
X71.96Y-66.19
X71.96Y-73.81
X71.96Y-85.19
X71.96Y-92.81
X71.96Y-104.19
X71.96Y-111.81
X88.42Y-58.46
X88.42Y-77.46
X88.42Y-96.46
X88.42Y-63.54
X88.42Y-82.54
X88.42Y-101.54
X90.96Y-57.19
X90.96Y-64.81
X90.96Y-76.19
X90.96Y-83.81
X90.96Y-95.19
X90.96Y-102.81
X107.42Y-55.46
X107.42Y-74.46
X107.42Y-93.46
X107.42Y-60.54
X107.42Y-79.54
X107.42Y-98.54
X109.96Y-54.19
X109.96Y-61.81
X109.96Y-73.19
X109.96Y-80.81
X109.96Y-92.19
X109.96Y-99.81
X125.04Y-123.19
X125.04Y-130.81
X127.58Y-124.46
X127.58Y-129.54
X134.04Y-59.19
X134.04Y-66.81
X134.04Y-78.19
X134.04Y-85.81
X134.04Y-97.19
X134.04Y-104.81
X136.58Y-60.46
X136.58Y-79.46
X136.58Y-98.46
X136.58Y-65.54
X136.58Y-84.54
X136.58Y-103.54
X144.04Y-125.19
X144.04Y-132.81
X146.58Y-126.46
X146.58Y-131.54
X153.04Y-61.19
X153.04Y-68.81
X153.04Y-80.19
X153.04Y-87.81
X153.04Y-99.19
X153.04Y-106.81
X155.58Y-62.46
X155.58Y-81.46
X155.58Y-100.46
X155.58Y-67.54
X155.58Y-86.54
X155.58Y-105.54
X163.04Y-128.19
X163.04Y-135.81
X165.58Y-129.46
X165.58Y-134.54
T4
G00X148.9Y-113.7
M15
G01X148.5Y-113.7
M16
G05
G00X148.5Y-118.3
M15
G01X148.9Y-118.3
M16
G05
G00X149.6Y-113.7
M15
G01X150.0Y-113.7
M16
G05
G00X150.0Y-118.3
M15
G01X149.6Y-118.3
M16
G05
G00X153.6Y-113.7
M15
G01X154.0Y-113.7
M16
G05
G00X154.0Y-118.3
M15
G01X153.6Y-118.3
M16
G05
G00X156.6Y-113.7
M15
G01X157.0Y-113.7
M16
G05
G00X157.0Y-118.3
M15
G01X156.6Y-118.3
M16
G05
M30
