%TF.GenerationSoftware,KiCad,Pcbnew,9.0.4*%
%TF.CreationDate,2025-11-10T10:10:39+09:00*%
%TF.ProjectId,boardloaf,626f6172-646c-46f6-9166-2e6b69636164,rev?*%
%TF.SameCoordinates,Original*%
%TF.FileFunction,Soldermask,Bot*%
%TF.FilePolarity,Negative*%
%FSLAX46Y46*%
G04 Gerber Fmt 4.6, Leading zero omitted, Abs format (unit mm)*
G04 Created by KiCad (PCBNEW 9.0.4) date 2025-11-10 10:10:39*
%MOMM*%
%LPD*%
G01*
G04 APERTURE LIST*
G04 Aperture macros list*
%AMOutline5P*
0 Free polygon, 5 corners , with rotation*
0 The origin of the aperture is its center*
0 number of corners: always 5*
0 $1 to $10 corner X, Y*
0 $11 Rotation angle, in degrees counterclockwise*
0 create outline with 5 corners*
4,1,5,$1,$2,$3,$4,$5,$6,$7,$8,$9,$10,$1,$2,$11*%
%AMOutline6P*
0 Free polygon, 6 corners , with rotation*
0 The origin of the aperture is its center*
0 number of corners: always 6*
0 $1 to $12 corner X, Y*
0 $13 Rotation angle, in degrees counterclockwise*
0 create outline with 6 corners*
4,1,6,$1,$2,$3,$4,$5,$6,$7,$8,$9,$10,$11,$12,$1,$2,$13*%
%AMOutline7P*
0 Free polygon, 7 corners , with rotation*
0 The origin of the aperture is its center*
0 number of corners: always 7*
0 $1 to $14 corner X, Y*
0 $15 Rotation angle, in degrees counterclockwise*
0 create outline with 7 corners*
4,1,7,$1,$2,$3,$4,$5,$6,$7,$8,$9,$10,$11,$12,$13,$14,$1,$2,$15*%
%AMOutline8P*
0 Free polygon, 8 corners , with rotation*
0 The origin of the aperture is its center*
0 number of corners: always 8*
0 $1 to $16 corner X, Y*
0 $17 Rotation angle, in degrees counterclockwise*
0 create outline with 8 corners*
4,1,8,$1,$2,$3,$4,$5,$6,$7,$8,$9,$10,$11,$12,$13,$14,$15,$16,$1,$2,$17*%
%AMFreePoly0*
4,1,6,1.000000,0.000000,0.500000,-0.750000,-0.500000,-0.750000,-0.500000,0.750000,0.500000,0.750000,1.000000,0.000000,1.000000,0.000000,$1*%
%AMFreePoly1*
4,1,6,0.500000,-0.750000,-0.650000,-0.750000,-0.150000,0.000000,-0.650000,0.750000,0.500000,0.750000,0.500000,-0.750000,0.500000,-0.750000,$1*%
G04 Aperture macros list end*
%ADD10C,1.701800*%
%ADD11C,3.000000*%
%ADD12C,3.987800*%
%ADD13C,2.286000*%
%ADD14R,2.500000X2.550000*%
%ADD15R,1.397000X1.397000*%
%ADD16R,0.940000X1.400000*%
%ADD17C,1.397000*%
%ADD18O,1.500000X3.000000*%
%ADD19O,3.000000X1.500000*%
%ADD20Outline8P,-1.500000X0.450000X-1.200000X0.750000X1.200000X0.750000X1.500000X0.450000X1.500000X-0.450000X1.200000X-0.750000X-1.200000X-0.750000X-1.500000X-0.450000X90.000000*%
%ADD21R,1.500000X3.000000*%
%ADD22C,0.800000*%
%ADD23O,2.000000X1.600000*%
%ADD24FreePoly0,270.000000*%
%ADD25FreePoly1,270.000000*%
G04 APERTURE END LIST*
%TO.C,JP1*%
G36*
X149750000Y-123275000D02*
G01*
X151250000Y-123275000D01*
X151250000Y-125725000D01*
X149750000Y-125725000D01*
X149750000Y-123275000D01*
G37*
%TO.C,JP3*%
G36*
X80500000Y-133275000D02*
G01*
X82000000Y-133275000D01*
X82000000Y-135725000D01*
X80500000Y-135725000D01*
X80500000Y-133275000D01*
G37*
%TD*%
D10*
%TO.C,SW16*%
X122500000Y-132080000D03*
D11*
X119960000Y-130810000D03*
X117420002Y-129540000D03*
D12*
X122500000Y-127000000D03*
D11*
X117419999Y-124459998D03*
X119960000Y-123190000D03*
D10*
X122500000Y-121920000D03*
D13*
X125040000Y-130810000D03*
X125040000Y-123190000D03*
D14*
X117420000Y-120710000D03*
X119959999Y-134560000D03*
D13*
X127580001Y-129540002D03*
X127579998Y-124460000D03*
%TD*%
D15*
%TO.C,D9*%
X122500000Y-117059999D03*
D16*
X122500001Y-115024999D03*
X122499999Y-111475001D03*
D17*
X122500000Y-109440001D03*
%TD*%
D10*
%TO.C,SW9*%
X131500000Y-87080000D03*
D11*
X128960000Y-85810000D03*
X126420002Y-84540000D03*
D12*
X131500000Y-82000000D03*
D11*
X126419999Y-79459998D03*
X128960000Y-78190000D03*
D10*
X131500000Y-76920000D03*
D13*
X134040000Y-85810000D03*
X134040000Y-78190000D03*
D14*
X126420000Y-75710000D03*
X128959999Y-89560000D03*
D13*
X136580001Y-84540002D03*
X136579998Y-79460000D03*
%TD*%
D15*
%TO.C,D7*%
X117500000Y-115059999D03*
D16*
X117500001Y-113024999D03*
X117499999Y-109475001D03*
D17*
X117500000Y-107440001D03*
%TD*%
D15*
%TO.C,D14*%
X135000000Y-118809999D03*
D16*
X135000001Y-116774999D03*
X134999999Y-113225001D03*
D17*
X135000000Y-111190001D03*
%TD*%
D15*
%TO.C,D1*%
X102500000Y-112809999D03*
D16*
X102500001Y-110774999D03*
X102499999Y-107225001D03*
D17*
X102500000Y-105190001D03*
%TD*%
D15*
%TO.C,D17*%
X142500000Y-119309999D03*
D16*
X142500001Y-117274999D03*
X142499999Y-113725001D03*
D17*
X142500000Y-111690001D03*
%TD*%
D15*
%TO.C,D8*%
X120000000Y-116059999D03*
D16*
X120000001Y-114024999D03*
X119999999Y-110475001D03*
D17*
X120000000Y-108440001D03*
%TD*%
D10*
%TO.C,SW15*%
X150500000Y-108080000D03*
D11*
X147960000Y-106810000D03*
X145420002Y-105540000D03*
D12*
X150500000Y-103000000D03*
D11*
X145419999Y-100459998D03*
X147960000Y-99190000D03*
D10*
X150500000Y-97920000D03*
D13*
X153040000Y-106810000D03*
X153040000Y-99190000D03*
D14*
X145420000Y-96710000D03*
X147959999Y-110560000D03*
D13*
X155580001Y-105540002D03*
X155579998Y-100460000D03*
%TD*%
D10*
%TO.C,SW4*%
X131500000Y-68080000D03*
D11*
X128960000Y-66810000D03*
X126420002Y-65540000D03*
D12*
X131500000Y-63000000D03*
D11*
X126419999Y-60459998D03*
X128960000Y-59190000D03*
D10*
X131500000Y-57920000D03*
D13*
X134040000Y-66810000D03*
X134040000Y-59190000D03*
D14*
X126420000Y-56710000D03*
X128959999Y-70560000D03*
D13*
X136580001Y-65540002D03*
X136579998Y-60460000D03*
%TD*%
D15*
%TO.C,D12*%
X130000000Y-118809999D03*
D16*
X130000001Y-116774999D03*
X129999999Y-113225001D03*
D17*
X130000000Y-111190001D03*
%TD*%
D15*
%TO.C,D3*%
X107500000Y-112809999D03*
D16*
X107500001Y-110774999D03*
X107499999Y-107225001D03*
D17*
X107500000Y-105190001D03*
%TD*%
D15*
%TO.C,D13*%
X132500000Y-118809999D03*
D16*
X132500001Y-116774999D03*
X132499999Y-113225001D03*
D17*
X132500000Y-111190001D03*
%TD*%
D10*
%TO.C,SW6*%
X74500000Y-83920000D03*
D11*
X77040000Y-85190000D03*
X79579999Y-86459998D03*
D12*
X74500000Y-89000000D03*
D11*
X79579999Y-91540002D03*
X77040000Y-92810000D03*
D10*
X74500000Y-94080000D03*
D13*
X71960000Y-85190000D03*
X71960000Y-92810000D03*
D14*
X79580000Y-95290000D03*
X77040004Y-81440000D03*
D13*
X69420001Y-86459998D03*
X69420001Y-91540002D03*
%TD*%
D15*
%TO.C,D6*%
X115000000Y-114059999D03*
D16*
X115000001Y-112024999D03*
X114999999Y-108475001D03*
D17*
X115000000Y-106440001D03*
%TD*%
D15*
%TO.C,D11*%
X127500000Y-118809999D03*
D16*
X127500001Y-116774999D03*
X127499999Y-113225001D03*
D17*
X127500000Y-111190001D03*
%TD*%
D15*
%TO.C,D16*%
X140000000Y-118309999D03*
D16*
X140000001Y-116274999D03*
X139999999Y-112725001D03*
D17*
X140000000Y-110690001D03*
%TD*%
D15*
%TO.C,D2*%
X105000000Y-112809999D03*
D16*
X105000001Y-110774999D03*
X104999999Y-107225001D03*
D17*
X105000000Y-105190001D03*
%TD*%
D15*
%TO.C,D18*%
X145000000Y-120309999D03*
D16*
X145000001Y-118274999D03*
X144999999Y-114725001D03*
D17*
X145000000Y-112690001D03*
%TD*%
D10*
%TO.C,SW5*%
X150500000Y-70080000D03*
D11*
X147960000Y-68810000D03*
X145420002Y-67540000D03*
D12*
X150500000Y-65000000D03*
D11*
X145419999Y-62459998D03*
X147960000Y-61190000D03*
D10*
X150500000Y-59920000D03*
D13*
X153040000Y-68810000D03*
X153040000Y-61190000D03*
D14*
X145420000Y-58710000D03*
X147959999Y-72560000D03*
D13*
X155580001Y-67540002D03*
X155579998Y-62460000D03*
%TD*%
D10*
%TO.C,SW18*%
X160500000Y-137080000D03*
D11*
X157960000Y-135810000D03*
X155420002Y-134540000D03*
D12*
X160500000Y-132000000D03*
D11*
X155419999Y-129459998D03*
X157960000Y-128190000D03*
D10*
X160500000Y-126920000D03*
D13*
X163040000Y-135810000D03*
X163040000Y-128190000D03*
D14*
X155420000Y-125710000D03*
X157959999Y-139560000D03*
D13*
X165580001Y-134540002D03*
X165579998Y-129460000D03*
%TD*%
D10*
%TO.C,SW11*%
X74500001Y-102920000D03*
D11*
X77040001Y-104190000D03*
X79580000Y-105459998D03*
D12*
X74500001Y-108000000D03*
D11*
X79580000Y-110540002D03*
X77040001Y-111810000D03*
D10*
X74500001Y-113080000D03*
D13*
X71960001Y-104190000D03*
X71960001Y-111810000D03*
D14*
X79580001Y-114290000D03*
X77040005Y-100440000D03*
D13*
X69420002Y-105459998D03*
X69420002Y-110540002D03*
%TD*%
D18*
%TO.C,U1*%
X89590000Y-116630000D03*
X92130000Y-116630000D03*
X94670000Y-116630000D03*
X97209999Y-116630000D03*
X99750000Y-116630000D03*
X102290000Y-116630001D03*
X104830000Y-116630000D03*
X107370000Y-116630000D03*
X109909999Y-116630000D03*
D19*
X110659999Y-119919999D03*
X110660000Y-122460000D03*
X110660001Y-125000001D03*
X110660000Y-127540000D03*
X110659999Y-130080000D03*
D18*
X109910000Y-133370000D03*
X107370000Y-133370000D03*
X104830000Y-133370000D03*
X102290001Y-133370000D03*
X99750000Y-133370000D03*
X97210000Y-133369999D03*
D20*
X94670000Y-133370000D03*
D21*
X92130000Y-133370000D03*
D20*
X89590001Y-133370000D03*
%TD*%
D10*
%TO.C,SW14*%
X131500000Y-106080000D03*
D11*
X128960000Y-104810000D03*
X126420002Y-103540000D03*
D12*
X131500000Y-101000000D03*
D11*
X126419999Y-98459998D03*
X128960000Y-97190000D03*
D10*
X131500000Y-95920000D03*
D13*
X134040000Y-104810000D03*
X134040000Y-97190000D03*
D14*
X126420000Y-94710000D03*
X128959999Y-108560000D03*
D13*
X136580001Y-103540002D03*
X136579998Y-98460000D03*
%TD*%
D10*
%TO.C,SW2*%
X93500004Y-55920008D03*
D11*
X96040004Y-57190008D03*
X98580002Y-58460008D03*
D12*
X93500004Y-61000008D03*
D11*
X98580005Y-63540010D03*
X96040004Y-64810008D03*
D10*
X93500004Y-66080008D03*
D13*
X90960004Y-57190008D03*
X90960004Y-64810008D03*
D14*
X98580004Y-67290008D03*
X96040005Y-53440008D03*
D13*
X88420003Y-58460006D03*
X88420006Y-63540008D03*
%TD*%
D10*
%TO.C,SW13*%
X112500004Y-90920008D03*
D11*
X115040004Y-92190008D03*
X117580002Y-93460008D03*
D12*
X112500004Y-96000008D03*
D11*
X117580005Y-98540010D03*
X115040004Y-99810008D03*
D10*
X112500004Y-101080008D03*
D13*
X109960004Y-92190008D03*
X109960004Y-99810008D03*
D14*
X117580004Y-102290008D03*
X115040005Y-88440008D03*
D13*
X107420003Y-93460006D03*
X107420006Y-98540008D03*
%TD*%
D15*
%TO.C,D10*%
X125000000Y-118059999D03*
D16*
X125000001Y-116024999D03*
X124999999Y-112475001D03*
D17*
X125000000Y-110440001D03*
%TD*%
D10*
%TO.C,SW17*%
X141500000Y-134080000D03*
D11*
X138960000Y-132810000D03*
X136420002Y-131540000D03*
D12*
X141500000Y-129000000D03*
D11*
X136419999Y-126459998D03*
X138960000Y-125190000D03*
D10*
X141500000Y-123920000D03*
D13*
X144040000Y-132810000D03*
X144040000Y-125190000D03*
D14*
X136420000Y-122710000D03*
X138959999Y-136560000D03*
D13*
X146580001Y-131540002D03*
X146579998Y-126460000D03*
%TD*%
D10*
%TO.C,SW7*%
X93500004Y-74920008D03*
D11*
X96040004Y-76190008D03*
X98580002Y-77460008D03*
D12*
X93500004Y-80000008D03*
D11*
X98580005Y-82540010D03*
X96040004Y-83810008D03*
D10*
X93500004Y-85080008D03*
D13*
X90960004Y-76190008D03*
X90960004Y-83810008D03*
D14*
X98580004Y-86290008D03*
X96040005Y-72440008D03*
D13*
X88420003Y-77460006D03*
X88420006Y-82540008D03*
%TD*%
D10*
%TO.C,SW12*%
X93500004Y-93920008D03*
D11*
X96040004Y-95190008D03*
X98580002Y-96460008D03*
D12*
X93500004Y-99000008D03*
D11*
X98580005Y-101540010D03*
X96040004Y-102810008D03*
D10*
X93500004Y-104080008D03*
D13*
X90960004Y-95190008D03*
X90960004Y-102810008D03*
D14*
X98580004Y-105290008D03*
X96040005Y-91440008D03*
D13*
X88420003Y-96460006D03*
X88420006Y-101540008D03*
%TD*%
D22*
%TO.C,J1*%
X158400000Y-116000000D03*
X151400000Y-116000000D03*
D23*
X153800000Y-118300000D03*
X156800000Y-118300000D03*
X148700000Y-113700000D03*
X149800000Y-118300000D03*
%TD*%
D10*
%TO.C,SW8*%
X112500004Y-71920008D03*
D11*
X115040004Y-73190008D03*
X117580002Y-74460008D03*
D12*
X112500004Y-77000008D03*
D11*
X117580005Y-79540010D03*
X115040004Y-80810008D03*
D10*
X112500004Y-82080008D03*
D13*
X109960004Y-73190008D03*
X109960004Y-80810008D03*
D14*
X117580004Y-83290008D03*
X115040005Y-69440008D03*
D13*
X107420003Y-74460006D03*
X107420006Y-79540008D03*
%TD*%
D15*
%TO.C,D5*%
X112500000Y-113309999D03*
D16*
X112500001Y-111274999D03*
X112499999Y-107725001D03*
D17*
X112500000Y-105690001D03*
%TD*%
D15*
%TO.C,D15*%
X137500000Y-118309999D03*
D16*
X137500001Y-116274999D03*
X137499999Y-112725001D03*
D17*
X137500000Y-110690001D03*
%TD*%
D15*
%TO.C,D4*%
X110000000Y-112809999D03*
D16*
X110000001Y-110774999D03*
X109999999Y-107225001D03*
D17*
X110000000Y-105190001D03*
%TD*%
D10*
%TO.C,SW1*%
X74499998Y-64919999D03*
D11*
X77039998Y-66189999D03*
X79579997Y-67459997D03*
D12*
X74499998Y-69999999D03*
D11*
X79579997Y-72540001D03*
X77039998Y-73809999D03*
D10*
X74499998Y-75079999D03*
D13*
X71959998Y-66189999D03*
X71959998Y-73809999D03*
D14*
X79579998Y-76289999D03*
X77040002Y-62439999D03*
D13*
X69419999Y-67459997D03*
X69419999Y-72540001D03*
%TD*%
D10*
%TO.C,SW3*%
X112500004Y-52920008D03*
D11*
X115040004Y-54190008D03*
X117580002Y-55460008D03*
D12*
X112500004Y-58000008D03*
D11*
X117580005Y-60540010D03*
X115040004Y-61810008D03*
D10*
X112500004Y-63080008D03*
D13*
X109960004Y-54190008D03*
X109960004Y-61810008D03*
D14*
X117580004Y-64290008D03*
X115040005Y-50440008D03*
D13*
X107420003Y-55460006D03*
X107420006Y-60540008D03*
%TD*%
D10*
%TO.C,SW10*%
X150500000Y-89080000D03*
D11*
X147960000Y-87810000D03*
X145420002Y-86540000D03*
D12*
X150500000Y-84000000D03*
D11*
X145419999Y-81459998D03*
X147960000Y-80190000D03*
D10*
X150500000Y-78920000D03*
D13*
X153040000Y-87810000D03*
X153040000Y-80190000D03*
D14*
X145420000Y-77710000D03*
X147959999Y-91560000D03*
D13*
X155580001Y-86540002D03*
X155579998Y-81460000D03*
%TD*%
D24*
%TO.C,JP1*%
X150500000Y-123775000D03*
D25*
X150500000Y-125225000D03*
%TD*%
D24*
%TO.C,JP3*%
X81250000Y-133775000D03*
D25*
X81250000Y-135225000D03*
%TD*%
D22*
%TO.C,J2*%
X151400000Y-116000000D03*
X158400000Y-116000000D03*
D23*
X153800000Y-113700000D03*
X156800000Y-113700000D03*
X148700000Y-118300000D03*
X149800000Y-113700000D03*
%TD*%
M02*
