%TF.GenerationSoftware,KiCad,Pcbnew,9.0.4*%
%TF.CreationDate,2025-11-05T05:12:24+09:00*%
%TF.ProjectId,boardloaf,626f6172-646c-46f6-9166-2e6b69636164,rev?*%
%TF.SameCoordinates,Original*%
%TF.FileFunction,Profile,NP*%
%FSLAX46Y46*%
G04 Gerber Fmt 4.6, Leading zero omitted, Abs format (unit mm)*
G04 Created by KiCad (PCBNEW 9.0.4) date 2025-11-05 05:12:24*
%MOMM*%
%LPD*%
G01*
G04 APERTURE LIST*
%TA.AperFunction,Profile*%
%ADD10C,0.050000*%
%TD*%
%TA.AperFunction,Profile*%
%ADD11C,0.100000*%
%TD*%
G04 APERTURE END LIST*
D10*
X78500003Y-139499998D02*
G75*
G02*
X81500004Y-136500003I2999997J-2D01*
G01*
X167500000Y-141500000D02*
X167500000Y-122500000D01*
X86500000Y-51500000D02*
X86500000Y-55000000D01*
X160000000Y-122000000D02*
X160000000Y-110000000D01*
X153500000Y-141500000D02*
G75*
G02*
X156500000Y-144499998I0J-3000000D01*
G01*
X167500000Y-122500000D02*
X160500000Y-122500000D01*
X153500000Y-139000000D02*
X153500000Y-141500000D01*
X164500000Y-144499998D02*
G75*
G02*
X167500001Y-141500000I3000000J-2D01*
G01*
X157500000Y-55500000D02*
G75*
G02*
X154500000Y-52500000I0J3000000D01*
G01*
X87500000Y-131749999D02*
X88000000Y-131750000D01*
X87000000Y-132500000D02*
X67500000Y-132500000D01*
X87000000Y-117500000D02*
X67500000Y-117500000D01*
X67500000Y-55500000D02*
X67500000Y-117500000D01*
X164500000Y-144499998D02*
G75*
G02*
X156500000Y-144499998I-4000000J-3D01*
G01*
X67500003Y-136500000D02*
G75*
G02*
X70500000Y-139499998I-3J-3000000D01*
G01*
X152500000Y-52500000D02*
G75*
G02*
X148500000Y-52500000I-2000000J0D01*
G01*
X148500000Y-52500000D02*
G75*
G02*
X152500000Y-52500000I2000000J0D01*
G01*
X139000000Y-55500000D02*
G75*
G02*
X138500000Y-55000000I0J500000D01*
G01*
X87000000Y-117500000D02*
G75*
G02*
X87500000Y-118000000I0J-500000D01*
G01*
X70500000Y-52500000D02*
G75*
G02*
X78500000Y-52500000I4000000J0D01*
G01*
X119500000Y-48500000D02*
X105500000Y-48500000D01*
X70500000Y-52500000D02*
G75*
G02*
X67500000Y-55500000I-3000000J0D01*
G01*
X87500000Y-118250000D02*
X88000000Y-118250000D01*
X67500000Y-132500000D02*
X67500000Y-136500000D01*
X87500000Y-118250000D02*
X87500000Y-118000000D01*
X86000000Y-55500000D02*
X81500000Y-55500000D01*
X78500003Y-139499998D02*
G75*
G02*
X70500003Y-139499998I-4000000J-3D01*
G01*
X105500000Y-48500000D02*
X105500000Y-51000000D01*
X88000000Y-112500000D02*
G75*
G02*
X84000000Y-112500000I-2000000J0D01*
G01*
X84000000Y-112500000D02*
G75*
G02*
X88000000Y-112500000I2000000J0D01*
G01*
X119500000Y-53000000D02*
X119500000Y-48500000D01*
X134500000Y-138500000D02*
X153000000Y-138500000D01*
X87500000Y-132000000D02*
G75*
G02*
X87000000Y-132500000I-500000J0D01*
G01*
X146500000Y-52500000D02*
G75*
G02*
X154500000Y-52500000I4000000J0D01*
G01*
X162500000Y-144500000D02*
G75*
G02*
X158500000Y-144500000I-2000000J0D01*
G01*
X158500000Y-144500000D02*
G75*
G02*
X162500000Y-144500000I2000000J0D01*
G01*
X153000000Y-138500000D02*
G75*
G02*
X153500000Y-139000000I0J-500000D01*
G01*
X120000000Y-53500000D02*
G75*
G02*
X119500000Y-53000000I0J500000D01*
G01*
X81500000Y-55500000D02*
G75*
G02*
X78500000Y-52500000I0J3000000D01*
G01*
X138500000Y-53500000D02*
X120000000Y-53500000D01*
X134000000Y-136500000D02*
G75*
G02*
X134500000Y-137000000I0J-500000D01*
G01*
X160500000Y-122500000D02*
G75*
G02*
X160000000Y-122000000I0J500000D01*
G01*
X143500000Y-74500000D02*
G75*
G02*
X139500000Y-74500000I-2000000J0D01*
G01*
X139500000Y-74500000D02*
G75*
G02*
X143500000Y-74500000I2000000J0D01*
G01*
X134500000Y-137000000D02*
X134500000Y-138500000D01*
X85500000Y-79500000D02*
G75*
G02*
X81500000Y-79500000I-2000000J0D01*
G01*
X81500000Y-79500000D02*
G75*
G02*
X85500000Y-79500000I2000000J0D01*
G01*
X138500000Y-55000000D02*
X138500000Y-53500000D01*
X160000000Y-110000000D02*
X158000000Y-110000000D01*
X105500000Y-51000000D02*
G75*
G02*
X105000000Y-51500000I-500000J0D01*
G01*
X158000000Y-110000000D02*
G75*
G02*
X157500000Y-109500000I0J500000D01*
G01*
X143500000Y-55500000D02*
X139000000Y-55500000D01*
X134000000Y-123000000D02*
G75*
G02*
X130000000Y-123000000I-2000000J0D01*
G01*
X130000000Y-123000000D02*
G75*
G02*
X134000000Y-123000000I2000000J0D01*
G01*
X87500000Y-131749999D02*
X87500000Y-132000000D01*
X86500000Y-55000000D02*
G75*
G02*
X86000000Y-55500000I-500000J0D01*
G01*
X105000000Y-51500000D02*
X86500000Y-51500000D01*
X76500000Y-52500000D02*
G75*
G02*
X72500000Y-52500000I-2000000J0D01*
G01*
X72500000Y-52500000D02*
G75*
G02*
X76500000Y-52500000I2000000J0D01*
G01*
X157500000Y-109500000D02*
X157500000Y-55500000D01*
X81500004Y-136500000D02*
X134000000Y-136500000D01*
X76500003Y-139500000D02*
G75*
G02*
X72500003Y-139500000I-2000000J0D01*
G01*
X72500003Y-139500000D02*
G75*
G02*
X76500003Y-139500000I2000000J0D01*
G01*
X146500000Y-52500000D02*
G75*
G02*
X143500000Y-55500000I-3000000J0D01*
G01*
D11*
%TO.C,U1*%
X88000000Y-131749999D02*
X108500000Y-131750001D01*
X108499999Y-118250000D02*
X87999999Y-118250000D01*
X109000000Y-131250000D02*
X109000000Y-118750000D01*
X108499999Y-118250000D02*
G75*
G02*
X109000000Y-118750000I1J-500000D01*
G01*
X109000000Y-131250000D02*
G75*
G02*
X108500000Y-131750001I-500006J5D01*
G01*
%TD*%
M02*
