M48
; DRILL file {KiCad 9.0.4} date 2025-11-05T05:12:31+0900
; FORMAT={-:-/ absolute / metric / decimal}
; #@! TF.CreationDate,2025-11-05T05:12:31+09:00
; #@! TF.GenerationSoftware,Kicad,Pcbnew,9.0.4
; #@! TF.FileFunction,NonPlated,1,2,NPTH
FMAT,2
METRIC
; #@! TA.AperFunction,NonPlated,NPTH,ComponentDrill
T1C0.800
; #@! TA.AperFunction,NonPlated,NPTH,ComponentDrill
T2C1.702
; #@! TA.AperFunction,NonPlated,NPTH,ComponentDrill
T3C3.000
; #@! TA.AperFunction,NonPlated,NPTH,ComponentDrill
T4C3.988
%
G90
G05
T1
X151.4Y-116.0
X151.4Y-116.0
X158.4Y-116.0
X158.4Y-116.0
T2
X74.5Y-64.92
X74.5Y-75.08
X74.5Y-83.92
X74.5Y-94.08
X74.5Y-102.92
X74.5Y-113.08
X93.5Y-55.92
X93.5Y-66.08
X93.5Y-74.92
X93.5Y-85.08
X93.5Y-93.92
X93.5Y-104.08
X112.5Y-52.92
X112.5Y-63.08
X112.5Y-71.92
X112.5Y-82.08
X112.5Y-90.92
X112.5Y-101.08
X122.5Y-121.92
X122.5Y-132.08
X131.5Y-57.92
X131.5Y-68.08
X131.5Y-76.92
X131.5Y-87.08
X131.5Y-95.92
X131.5Y-106.08
X141.5Y-123.92
X141.5Y-134.08
X150.5Y-59.92
X150.5Y-70.08
X150.5Y-78.92
X150.5Y-89.08
X150.5Y-97.92
X150.5Y-108.08
X160.5Y-126.92
X160.5Y-137.08
T3
X77.04Y-66.19
X77.04Y-73.81
X77.04Y-85.19
X77.04Y-92.81
X77.04Y-104.19
X77.04Y-111.81
X79.58Y-67.46
X79.58Y-72.54
X79.58Y-86.46
X79.58Y-91.54
X79.58Y-105.46
X79.58Y-110.54
X96.04Y-57.19
X96.04Y-64.81
X96.04Y-76.19
X96.04Y-83.81
X96.04Y-95.19
X96.04Y-102.81
X98.58Y-58.46
X98.58Y-77.46
X98.58Y-96.46
X98.58Y-63.54
X98.58Y-82.54
X98.58Y-101.54
X115.04Y-54.19
X115.04Y-61.81
X115.04Y-73.19
X115.04Y-80.81
X115.04Y-92.19
X115.04Y-99.81
X117.42Y-124.46
X117.42Y-129.54
X117.58Y-55.46
X117.58Y-74.46
X117.58Y-93.46
X117.58Y-60.54
X117.58Y-79.54
X117.58Y-98.54
X119.96Y-123.19
X119.96Y-130.81
X126.42Y-60.46
X126.42Y-79.46
X126.42Y-98.46
X126.42Y-65.54
X126.42Y-84.54
X126.42Y-103.54
X128.96Y-59.19
X128.96Y-66.81
X128.96Y-78.19
X128.96Y-85.81
X128.96Y-97.19
X128.96Y-104.81
X136.42Y-126.46
X136.42Y-131.54
X138.96Y-125.19
X138.96Y-132.81
X145.42Y-62.46
X145.42Y-81.46
X145.42Y-100.46
X145.42Y-67.54
X145.42Y-86.54
X145.42Y-105.54
X147.96Y-61.19
X147.96Y-68.81
X147.96Y-80.19
X147.96Y-87.81
X147.96Y-99.19
X147.96Y-106.81
X155.42Y-129.46
X155.42Y-134.54
X157.96Y-128.19
X157.96Y-135.81
T4
X74.5Y-70.0
X74.5Y-89.0
X74.5Y-108.0
X93.5Y-61.0
X93.5Y-80.0
X93.5Y-99.0
X112.5Y-58.0
X112.5Y-77.0
X112.5Y-96.0
X122.5Y-127.0
X131.5Y-63.0
X131.5Y-82.0
X131.5Y-101.0
X141.5Y-129.0
X150.5Y-65.0
X150.5Y-84.0
X150.5Y-103.0
X160.5Y-132.0
M30
