%TF.GenerationSoftware,KiCad,Pcbnew,9.0.4*%
%TF.CreationDate,2025-11-05T05:12:24+09:00*%
%TF.ProjectId,boardloaf,626f6172-646c-46f6-9166-2e6b69636164,rev?*%
%TF.SameCoordinates,Original*%
%TF.FileFunction,Legend,Top*%
%TF.FilePolarity,Positive*%
%FSLAX46Y46*%
G04 Gerber Fmt 4.6, Leading zero omitted, Abs format (unit mm)*
G04 Created by KiCad (PCBNEW 9.0.4) date 2025-11-05 05:12:24*
%MOMM*%
%LPD*%
G01*
G04 APERTURE LIST*
%ADD10C,0.250000*%
%ADD11C,0.200000*%
%ADD12C,0.100000*%
%ADD13C,0.150000*%
%ADD14C,0.000000*%
%ADD15C,0.120000*%
G04 APERTURE END LIST*
D10*
X90964098Y-111180928D02*
X90249812Y-111180928D01*
X90249812Y-111180928D02*
X90249812Y-109680928D01*
X91464098Y-110395214D02*
X91964098Y-110395214D01*
X92178384Y-111180928D02*
X91464098Y-111180928D01*
X91464098Y-111180928D02*
X91464098Y-109680928D01*
X91464098Y-109680928D02*
X92178384Y-109680928D01*
X93321241Y-110395214D02*
X92821241Y-110395214D01*
X92821241Y-111180928D02*
X92821241Y-109680928D01*
X92821241Y-109680928D02*
X93535527Y-109680928D01*
X93892670Y-109680928D02*
X94749813Y-109680928D01*
X94321241Y-111180928D02*
X94321241Y-109680928D01*
X96321241Y-111109500D02*
X96535527Y-111180928D01*
X96535527Y-111180928D02*
X96892669Y-111180928D01*
X96892669Y-111180928D02*
X97035527Y-111109500D01*
X97035527Y-111109500D02*
X97106955Y-111038071D01*
X97106955Y-111038071D02*
X97178384Y-110895214D01*
X97178384Y-110895214D02*
X97178384Y-110752357D01*
X97178384Y-110752357D02*
X97106955Y-110609500D01*
X97106955Y-110609500D02*
X97035527Y-110538071D01*
X97035527Y-110538071D02*
X96892669Y-110466642D01*
X96892669Y-110466642D02*
X96606955Y-110395214D01*
X96606955Y-110395214D02*
X96464098Y-110323785D01*
X96464098Y-110323785D02*
X96392669Y-110252357D01*
X96392669Y-110252357D02*
X96321241Y-110109500D01*
X96321241Y-110109500D02*
X96321241Y-109966642D01*
X96321241Y-109966642D02*
X96392669Y-109823785D01*
X96392669Y-109823785D02*
X96464098Y-109752357D01*
X96464098Y-109752357D02*
X96606955Y-109680928D01*
X96606955Y-109680928D02*
X96964098Y-109680928D01*
X96964098Y-109680928D02*
X97178384Y-109752357D01*
X97821240Y-111180928D02*
X97821240Y-109680928D01*
X98535526Y-111180928D02*
X98535526Y-109680928D01*
X98535526Y-109680928D02*
X98892669Y-109680928D01*
X98892669Y-109680928D02*
X99106955Y-109752357D01*
X99106955Y-109752357D02*
X99249812Y-109895214D01*
X99249812Y-109895214D02*
X99321241Y-110038071D01*
X99321241Y-110038071D02*
X99392669Y-110323785D01*
X99392669Y-110323785D02*
X99392669Y-110538071D01*
X99392669Y-110538071D02*
X99321241Y-110823785D01*
X99321241Y-110823785D02*
X99249812Y-110966642D01*
X99249812Y-110966642D02*
X99106955Y-111109500D01*
X99106955Y-111109500D02*
X98892669Y-111180928D01*
X98892669Y-111180928D02*
X98535526Y-111180928D01*
X100035526Y-110395214D02*
X100535526Y-110395214D01*
X100749812Y-111180928D02*
X100035526Y-111180928D01*
X100035526Y-111180928D02*
X100035526Y-109680928D01*
X100035526Y-109680928D02*
X100749812Y-109680928D01*
D11*
X69701753Y-56452219D02*
X70273181Y-56452219D01*
X69987467Y-57452219D02*
X69987467Y-56452219D01*
X70606515Y-57452219D02*
X70606515Y-56452219D01*
X71035086Y-57452219D02*
X71035086Y-56928409D01*
X71035086Y-56928409D02*
X70987467Y-56833171D01*
X70987467Y-56833171D02*
X70892229Y-56785552D01*
X70892229Y-56785552D02*
X70749372Y-56785552D01*
X70749372Y-56785552D02*
X70654134Y-56833171D01*
X70654134Y-56833171D02*
X70606515Y-56880790D01*
X71511277Y-57452219D02*
X71511277Y-56785552D01*
X71511277Y-56452219D02*
X71463658Y-56499838D01*
X71463658Y-56499838D02*
X71511277Y-56547457D01*
X71511277Y-56547457D02*
X71558896Y-56499838D01*
X71558896Y-56499838D02*
X71511277Y-56452219D01*
X71511277Y-56452219D02*
X71511277Y-56547457D01*
X71939848Y-57404600D02*
X72035086Y-57452219D01*
X72035086Y-57452219D02*
X72225562Y-57452219D01*
X72225562Y-57452219D02*
X72320800Y-57404600D01*
X72320800Y-57404600D02*
X72368419Y-57309361D01*
X72368419Y-57309361D02*
X72368419Y-57261742D01*
X72368419Y-57261742D02*
X72320800Y-57166504D01*
X72320800Y-57166504D02*
X72225562Y-57118885D01*
X72225562Y-57118885D02*
X72082705Y-57118885D01*
X72082705Y-57118885D02*
X71987467Y-57071266D01*
X71987467Y-57071266D02*
X71939848Y-56976028D01*
X71939848Y-56976028D02*
X71939848Y-56928409D01*
X71939848Y-56928409D02*
X71987467Y-56833171D01*
X71987467Y-56833171D02*
X72082705Y-56785552D01*
X72082705Y-56785552D02*
X72225562Y-56785552D01*
X72225562Y-56785552D02*
X72320800Y-56833171D01*
X73558896Y-57452219D02*
X73558896Y-56785552D01*
X73558896Y-56452219D02*
X73511277Y-56499838D01*
X73511277Y-56499838D02*
X73558896Y-56547457D01*
X73558896Y-56547457D02*
X73606515Y-56499838D01*
X73606515Y-56499838D02*
X73558896Y-56452219D01*
X73558896Y-56452219D02*
X73558896Y-56547457D01*
X73987467Y-57404600D02*
X74082705Y-57452219D01*
X74082705Y-57452219D02*
X74273181Y-57452219D01*
X74273181Y-57452219D02*
X74368419Y-57404600D01*
X74368419Y-57404600D02*
X74416038Y-57309361D01*
X74416038Y-57309361D02*
X74416038Y-57261742D01*
X74416038Y-57261742D02*
X74368419Y-57166504D01*
X74368419Y-57166504D02*
X74273181Y-57118885D01*
X74273181Y-57118885D02*
X74130324Y-57118885D01*
X74130324Y-57118885D02*
X74035086Y-57071266D01*
X74035086Y-57071266D02*
X73987467Y-56976028D01*
X73987467Y-56976028D02*
X73987467Y-56928409D01*
X73987467Y-56928409D02*
X74035086Y-56833171D01*
X74035086Y-56833171D02*
X74130324Y-56785552D01*
X74130324Y-56785552D02*
X74273181Y-56785552D01*
X74273181Y-56785552D02*
X74368419Y-56833171D01*
X75606515Y-56785552D02*
X75606515Y-57452219D01*
X75606515Y-56880790D02*
X75654134Y-56833171D01*
X75654134Y-56833171D02*
X75749372Y-56785552D01*
X75749372Y-56785552D02*
X75892229Y-56785552D01*
X75892229Y-56785552D02*
X75987467Y-56833171D01*
X75987467Y-56833171D02*
X76035086Y-56928409D01*
X76035086Y-56928409D02*
X76035086Y-57452219D01*
X76654134Y-57452219D02*
X76558896Y-57404600D01*
X76558896Y-57404600D02*
X76511277Y-57356980D01*
X76511277Y-57356980D02*
X76463658Y-57261742D01*
X76463658Y-57261742D02*
X76463658Y-56976028D01*
X76463658Y-56976028D02*
X76511277Y-56880790D01*
X76511277Y-56880790D02*
X76558896Y-56833171D01*
X76558896Y-56833171D02*
X76654134Y-56785552D01*
X76654134Y-56785552D02*
X76796991Y-56785552D01*
X76796991Y-56785552D02*
X76892229Y-56833171D01*
X76892229Y-56833171D02*
X76939848Y-56880790D01*
X76939848Y-56880790D02*
X76987467Y-56976028D01*
X76987467Y-56976028D02*
X76987467Y-57261742D01*
X76987467Y-57261742D02*
X76939848Y-57356980D01*
X76939848Y-57356980D02*
X76892229Y-57404600D01*
X76892229Y-57404600D02*
X76796991Y-57452219D01*
X76796991Y-57452219D02*
X76654134Y-57452219D01*
X77273182Y-56785552D02*
X77654134Y-56785552D01*
X77416039Y-56452219D02*
X77416039Y-57309361D01*
X77416039Y-57309361D02*
X77463658Y-57404600D01*
X77463658Y-57404600D02*
X77558896Y-57452219D01*
X77558896Y-57452219D02*
X77654134Y-57452219D01*
X79177944Y-57452219D02*
X79177944Y-56928409D01*
X79177944Y-56928409D02*
X79130325Y-56833171D01*
X79130325Y-56833171D02*
X79035087Y-56785552D01*
X79035087Y-56785552D02*
X78844611Y-56785552D01*
X78844611Y-56785552D02*
X78749373Y-56833171D01*
X79177944Y-57404600D02*
X79082706Y-57452219D01*
X79082706Y-57452219D02*
X78844611Y-57452219D01*
X78844611Y-57452219D02*
X78749373Y-57404600D01*
X78749373Y-57404600D02*
X78701754Y-57309361D01*
X78701754Y-57309361D02*
X78701754Y-57214123D01*
X78701754Y-57214123D02*
X78749373Y-57118885D01*
X78749373Y-57118885D02*
X78844611Y-57071266D01*
X78844611Y-57071266D02*
X79082706Y-57071266D01*
X79082706Y-57071266D02*
X79177944Y-57023647D01*
X80416040Y-57452219D02*
X80416040Y-56452219D01*
X80416040Y-56833171D02*
X80511278Y-56785552D01*
X80511278Y-56785552D02*
X80701754Y-56785552D01*
X80701754Y-56785552D02*
X80796992Y-56833171D01*
X80796992Y-56833171D02*
X80844611Y-56880790D01*
X80844611Y-56880790D02*
X80892230Y-56976028D01*
X80892230Y-56976028D02*
X80892230Y-57261742D01*
X80892230Y-57261742D02*
X80844611Y-57356980D01*
X80844611Y-57356980D02*
X80796992Y-57404600D01*
X80796992Y-57404600D02*
X80701754Y-57452219D01*
X80701754Y-57452219D02*
X80511278Y-57452219D01*
X80511278Y-57452219D02*
X80416040Y-57404600D01*
X81320802Y-57452219D02*
X81320802Y-56785552D01*
X81320802Y-56976028D02*
X81368421Y-56880790D01*
X81368421Y-56880790D02*
X81416040Y-56833171D01*
X81416040Y-56833171D02*
X81511278Y-56785552D01*
X81511278Y-56785552D02*
X81606516Y-56785552D01*
X82320802Y-57404600D02*
X82225564Y-57452219D01*
X82225564Y-57452219D02*
X82035088Y-57452219D01*
X82035088Y-57452219D02*
X81939850Y-57404600D01*
X81939850Y-57404600D02*
X81892231Y-57309361D01*
X81892231Y-57309361D02*
X81892231Y-56928409D01*
X81892231Y-56928409D02*
X81939850Y-56833171D01*
X81939850Y-56833171D02*
X82035088Y-56785552D01*
X82035088Y-56785552D02*
X82225564Y-56785552D01*
X82225564Y-56785552D02*
X82320802Y-56833171D01*
X82320802Y-56833171D02*
X82368421Y-56928409D01*
X82368421Y-56928409D02*
X82368421Y-57023647D01*
X82368421Y-57023647D02*
X81892231Y-57118885D01*
X83225564Y-57452219D02*
X83225564Y-56928409D01*
X83225564Y-56928409D02*
X83177945Y-56833171D01*
X83177945Y-56833171D02*
X83082707Y-56785552D01*
X83082707Y-56785552D02*
X82892231Y-56785552D01*
X82892231Y-56785552D02*
X82796993Y-56833171D01*
X83225564Y-57404600D02*
X83130326Y-57452219D01*
X83130326Y-57452219D02*
X82892231Y-57452219D01*
X82892231Y-57452219D02*
X82796993Y-57404600D01*
X82796993Y-57404600D02*
X82749374Y-57309361D01*
X82749374Y-57309361D02*
X82749374Y-57214123D01*
X82749374Y-57214123D02*
X82796993Y-57118885D01*
X82796993Y-57118885D02*
X82892231Y-57071266D01*
X82892231Y-57071266D02*
X83130326Y-57071266D01*
X83130326Y-57071266D02*
X83225564Y-57023647D01*
X84130326Y-57452219D02*
X84130326Y-56452219D01*
X84130326Y-57404600D02*
X84035088Y-57452219D01*
X84035088Y-57452219D02*
X83844612Y-57452219D01*
X83844612Y-57452219D02*
X83749374Y-57404600D01*
X83749374Y-57404600D02*
X83701755Y-57356980D01*
X83701755Y-57356980D02*
X83654136Y-57261742D01*
X83654136Y-57261742D02*
X83654136Y-56976028D01*
X83654136Y-56976028D02*
X83701755Y-56880790D01*
X83701755Y-56880790D02*
X83749374Y-56833171D01*
X83749374Y-56833171D02*
X83844612Y-56785552D01*
X83844612Y-56785552D02*
X84035088Y-56785552D01*
X84035088Y-56785552D02*
X84130326Y-56833171D01*
D12*
G36*
X71250970Y-58161981D02*
G01*
X71397962Y-58190833D01*
X71519368Y-58235497D01*
X71619348Y-58294480D01*
X71704796Y-58373203D01*
X71765130Y-58465518D01*
X71802289Y-58574099D01*
X71815353Y-58703220D01*
X71806041Y-58810957D01*
X71779559Y-58902867D01*
X71736951Y-58981901D01*
X71650284Y-59082738D01*
X71553524Y-59152627D01*
X71448034Y-59201426D01*
X71350559Y-59229563D01*
X71350559Y-59257651D01*
X71479829Y-59280623D01*
X71598730Y-59322577D01*
X71708985Y-59383681D01*
X71775376Y-59443178D01*
X71824675Y-59522801D01*
X71856771Y-59627513D01*
X71868598Y-59764455D01*
X71858868Y-59880773D01*
X71831341Y-59979056D01*
X71787349Y-60062619D01*
X71726622Y-60133889D01*
X71647314Y-60194200D01*
X71535376Y-60250826D01*
X71404590Y-60293306D01*
X71251824Y-60320387D01*
X71073465Y-60330000D01*
X69788259Y-60330000D01*
X69788259Y-59870823D01*
X69928210Y-59870823D01*
X70712230Y-59870823D01*
X70882956Y-59870823D01*
X70956513Y-59859065D01*
X71004711Y-59827470D01*
X71033982Y-59775698D01*
X71045377Y-59691549D01*
X71045377Y-59568450D01*
X71033978Y-59484321D01*
X71004711Y-59432651D01*
X70956501Y-59400963D01*
X70882956Y-59389176D01*
X70712230Y-59389176D01*
X70712230Y-59870823D01*
X69928210Y-59870823D01*
X69928210Y-59069951D01*
X70712230Y-59069951D01*
X70863416Y-59069951D01*
X70936974Y-59058193D01*
X70985171Y-59026598D01*
X71014438Y-58974928D01*
X71025838Y-58890799D01*
X71025838Y-58790048D01*
X71014438Y-58705919D01*
X70985171Y-58654249D01*
X70936962Y-58622561D01*
X70863416Y-58610774D01*
X70712230Y-58610774D01*
X70712230Y-59069951D01*
X69928210Y-59069951D01*
X69928210Y-58610774D01*
X69788259Y-58610774D01*
X69788259Y-58151598D01*
X71073465Y-58151598D01*
X71250970Y-58161981D01*
G37*
G36*
X72950002Y-58743663D02*
G01*
X73091506Y-58771026D01*
X73213634Y-58814243D01*
X73319161Y-58872366D01*
X73410259Y-58945387D01*
X73487103Y-59033364D01*
X73547924Y-59135506D01*
X73592986Y-59253946D01*
X73621475Y-59391511D01*
X73631543Y-59551598D01*
X73621279Y-59714203D01*
X73592314Y-59853096D01*
X73546620Y-59971908D01*
X73485084Y-60073660D01*
X73407450Y-60160617D01*
X73315306Y-60232852D01*
X73209376Y-60290254D01*
X73087625Y-60332837D01*
X72947464Y-60359725D01*
X72785852Y-60369200D01*
X72624239Y-60359725D01*
X72484079Y-60332837D01*
X72362327Y-60290254D01*
X72256397Y-60232852D01*
X72164254Y-60160617D01*
X72086667Y-60073667D01*
X72025164Y-59971919D01*
X71979494Y-59853107D01*
X71950542Y-59714210D01*
X71940283Y-59551598D01*
X71949112Y-59411646D01*
X72623430Y-59411646D01*
X72623430Y-59691549D01*
X72634795Y-59775710D01*
X72663975Y-59827470D01*
X72712273Y-59859069D01*
X72785852Y-59870823D01*
X72859409Y-59859065D01*
X72907607Y-59827470D01*
X72936878Y-59775698D01*
X72948273Y-59691549D01*
X72948273Y-59411646D01*
X72936874Y-59327517D01*
X72907607Y-59275847D01*
X72859397Y-59244159D01*
X72785852Y-59232372D01*
X72712285Y-59244154D01*
X72663975Y-59275847D01*
X72634799Y-59327505D01*
X72623430Y-59411646D01*
X71949112Y-59411646D01*
X71950542Y-59388985D01*
X71979494Y-59250088D01*
X72025164Y-59131276D01*
X72086667Y-59029528D01*
X72164254Y-58942578D01*
X72256397Y-58870343D01*
X72362327Y-58812941D01*
X72484079Y-58770358D01*
X72624239Y-58743470D01*
X72785852Y-58733995D01*
X72950002Y-58743663D01*
G37*
G36*
X74669022Y-58745926D02*
G01*
X74833818Y-58777873D01*
X74957904Y-58825221D01*
X75049739Y-58885181D01*
X75124975Y-58966584D01*
X75180535Y-59068384D01*
X75216141Y-59195075D01*
X75229013Y-59352784D01*
X75229013Y-59870823D01*
X75352233Y-59870823D01*
X75352233Y-60330000D01*
X74613032Y-60330000D01*
X74613032Y-60139612D01*
X74541114Y-60222476D01*
X74440719Y-60299225D01*
X74364162Y-60337143D01*
X74275022Y-60360847D01*
X74170587Y-60369200D01*
X74034887Y-60355545D01*
X73926784Y-60317575D01*
X73840248Y-60257215D01*
X73789009Y-60197584D01*
X73751687Y-60126626D01*
X73728188Y-60042063D01*
X73719836Y-59940799D01*
X73732112Y-59824154D01*
X73733446Y-59820387D01*
X74349861Y-59820387D01*
X74357450Y-59864147D01*
X74379170Y-59897445D01*
X74413217Y-59918943D01*
X74461846Y-59926755D01*
X74507018Y-59919788D01*
X74543623Y-59899678D01*
X74573831Y-59865205D01*
X74602091Y-59795892D01*
X74613032Y-59691549D01*
X74613032Y-59674818D01*
X74494943Y-59684368D01*
X74418371Y-59708401D01*
X74380090Y-59736005D01*
X74357739Y-59772366D01*
X74349861Y-59820387D01*
X73733446Y-59820387D01*
X73767262Y-59724880D01*
X73824925Y-59639154D01*
X73907591Y-59564706D01*
X74020316Y-59501099D01*
X74170267Y-59449753D01*
X74366296Y-59413758D01*
X74618650Y-59397602D01*
X74605743Y-59337941D01*
X74581314Y-59296002D01*
X74545744Y-59267421D01*
X74469523Y-59242947D01*
X74327390Y-59232372D01*
X74199458Y-59238770D01*
X74057136Y-59258995D01*
X73916726Y-59290770D01*
X73792621Y-59330436D01*
X73792621Y-58815205D01*
X73944409Y-58782851D01*
X74114533Y-58756465D01*
X74287295Y-58739532D01*
X74453420Y-58733995D01*
X74669022Y-58745926D01*
G37*
G36*
X76636829Y-58733995D02*
G01*
X76743196Y-58745230D01*
X76827216Y-58773196D01*
X76827216Y-59307965D01*
X76709077Y-59272504D01*
X76580775Y-59260460D01*
X76466751Y-59271898D01*
X76378133Y-59303368D01*
X76309177Y-59352906D01*
X76258443Y-59420408D01*
X76225963Y-59509609D01*
X76214044Y-59627191D01*
X76214044Y-59870823D01*
X76465981Y-59870823D01*
X76465981Y-60330000D01*
X75446878Y-60330000D01*
X75446878Y-59870823D01*
X75569976Y-59870823D01*
X75569976Y-59232372D01*
X75446878Y-59232372D01*
X75446878Y-58773196D01*
X76214044Y-58773196D01*
X76214044Y-58977627D01*
X76299981Y-58871717D01*
X76393196Y-58797009D01*
X76462979Y-58762783D01*
X76543432Y-58741474D01*
X76636829Y-58733995D01*
G37*
G36*
X78546075Y-59870823D02*
G01*
X78669296Y-59870823D01*
X78669296Y-60330000D01*
X77902007Y-60330000D01*
X77902007Y-60139612D01*
X77823441Y-60222936D01*
X77721389Y-60299225D01*
X77645062Y-60337739D01*
X77561230Y-60361153D01*
X77468109Y-60369200D01*
X77329562Y-60354914D01*
X77214762Y-60314488D01*
X77118675Y-60249076D01*
X77038242Y-60156465D01*
X76979362Y-60048695D01*
X76934192Y-59915490D01*
X76904706Y-59751762D01*
X76894016Y-59551598D01*
X76901491Y-59411646D01*
X77577286Y-59411646D01*
X77577286Y-59691549D01*
X77588650Y-59775710D01*
X77617830Y-59827470D01*
X77666129Y-59859069D01*
X77739707Y-59870823D01*
X77813158Y-59859069D01*
X77861340Y-59827470D01*
X77890612Y-59775698D01*
X77902007Y-59691549D01*
X77902007Y-59411646D01*
X77890607Y-59327517D01*
X77861340Y-59275847D01*
X77813146Y-59244154D01*
X77739707Y-59232372D01*
X77666141Y-59244154D01*
X77617830Y-59275847D01*
X77588655Y-59327505D01*
X77577286Y-59411646D01*
X76901491Y-59411646D01*
X76904707Y-59351427D01*
X76934196Y-59187722D01*
X76979367Y-59054562D01*
X77038242Y-58946852D01*
X77118683Y-58854181D01*
X77214773Y-58788733D01*
X77329570Y-58748287D01*
X77468109Y-58733995D01*
X77561230Y-58742042D01*
X77645062Y-58765456D01*
X77721389Y-58803970D01*
X77823441Y-58880259D01*
X77902007Y-58963583D01*
X77902007Y-58610774D01*
X77736898Y-58610774D01*
X77736898Y-58151598D01*
X78546075Y-58151598D01*
X78546075Y-59870823D01*
G37*
G36*
X78757101Y-60332808D02*
G01*
X78757101Y-59870823D01*
X78880321Y-59870823D01*
X78880321Y-58610774D01*
X78757101Y-58610774D01*
X78757101Y-58151598D01*
X79524268Y-58151598D01*
X79524268Y-59870823D01*
X79647488Y-59870823D01*
X79647488Y-60332808D01*
X78757101Y-60332808D01*
G37*
G36*
X80734510Y-58743663D02*
G01*
X80876014Y-58771026D01*
X80998142Y-58814243D01*
X81103669Y-58872366D01*
X81194767Y-58945387D01*
X81271611Y-59033364D01*
X81332432Y-59135506D01*
X81377494Y-59253946D01*
X81405983Y-59391511D01*
X81416051Y-59551598D01*
X81405787Y-59714203D01*
X81376822Y-59853096D01*
X81331128Y-59971908D01*
X81269592Y-60073660D01*
X81191958Y-60160617D01*
X81099814Y-60232852D01*
X80993884Y-60290254D01*
X80872133Y-60332837D01*
X80731972Y-60359725D01*
X80570360Y-60369200D01*
X80408747Y-60359725D01*
X80268587Y-60332837D01*
X80146835Y-60290254D01*
X80040905Y-60232852D01*
X79948762Y-60160617D01*
X79871175Y-60073667D01*
X79809672Y-59971919D01*
X79764002Y-59853107D01*
X79735050Y-59714210D01*
X79724791Y-59551598D01*
X79733620Y-59411646D01*
X80407938Y-59411646D01*
X80407938Y-59691549D01*
X80419303Y-59775710D01*
X80448483Y-59827470D01*
X80496781Y-59859069D01*
X80570360Y-59870823D01*
X80643917Y-59859065D01*
X80692115Y-59827470D01*
X80721386Y-59775698D01*
X80732781Y-59691549D01*
X80732781Y-59411646D01*
X80721382Y-59327517D01*
X80692115Y-59275847D01*
X80643905Y-59244159D01*
X80570360Y-59232372D01*
X80496793Y-59244154D01*
X80448483Y-59275847D01*
X80419307Y-59327505D01*
X80407938Y-59411646D01*
X79733620Y-59411646D01*
X79735050Y-59388985D01*
X79764002Y-59250088D01*
X79809672Y-59131276D01*
X79871175Y-59029528D01*
X79948762Y-58942578D01*
X80040905Y-58870343D01*
X80146835Y-58812941D01*
X80268587Y-58770358D01*
X80408747Y-58743470D01*
X80570360Y-58733995D01*
X80734510Y-58743663D01*
G37*
G36*
X82453530Y-58745926D02*
G01*
X82618326Y-58777873D01*
X82742412Y-58825221D01*
X82834247Y-58885181D01*
X82909483Y-58966584D01*
X82965043Y-59068384D01*
X83000649Y-59195075D01*
X83013521Y-59352784D01*
X83013521Y-59870823D01*
X83136741Y-59870823D01*
X83136741Y-60330000D01*
X82397540Y-60330000D01*
X82397540Y-60139612D01*
X82325622Y-60222476D01*
X82225227Y-60299225D01*
X82148670Y-60337143D01*
X82059530Y-60360847D01*
X81955095Y-60369200D01*
X81819395Y-60355545D01*
X81711292Y-60317575D01*
X81624756Y-60257215D01*
X81573517Y-60197584D01*
X81536195Y-60126626D01*
X81512696Y-60042063D01*
X81504344Y-59940799D01*
X81516620Y-59824154D01*
X81517954Y-59820387D01*
X82134369Y-59820387D01*
X82141958Y-59864147D01*
X82163678Y-59897445D01*
X82197725Y-59918943D01*
X82246354Y-59926755D01*
X82291526Y-59919788D01*
X82328131Y-59899678D01*
X82358339Y-59865205D01*
X82386599Y-59795892D01*
X82397540Y-59691549D01*
X82397540Y-59674818D01*
X82279451Y-59684368D01*
X82202879Y-59708401D01*
X82164598Y-59736005D01*
X82142247Y-59772366D01*
X82134369Y-59820387D01*
X81517954Y-59820387D01*
X81551770Y-59724880D01*
X81609433Y-59639154D01*
X81692099Y-59564706D01*
X81804824Y-59501099D01*
X81954775Y-59449753D01*
X82150804Y-59413758D01*
X82403158Y-59397602D01*
X82390251Y-59337941D01*
X82365822Y-59296002D01*
X82330252Y-59267421D01*
X82254031Y-59242947D01*
X82111898Y-59232372D01*
X81983966Y-59238770D01*
X81841644Y-59258995D01*
X81701234Y-59290770D01*
X81577129Y-59330436D01*
X81577129Y-58815205D01*
X81728917Y-58782851D01*
X81899041Y-58756465D01*
X82071803Y-58739532D01*
X82237928Y-58733995D01*
X82453530Y-58745926D01*
G37*
G36*
X83225768Y-59870823D02*
G01*
X83348988Y-59870823D01*
X83348988Y-59232372D01*
X83225768Y-59232372D01*
X83225768Y-58773196D01*
X83354484Y-58773196D01*
X83366823Y-58600742D01*
X83400605Y-58464109D01*
X83452429Y-58356344D01*
X83521058Y-58272009D01*
X83608421Y-58205449D01*
X83715574Y-58155783D01*
X83846668Y-58123885D01*
X84006979Y-58112397D01*
X84156878Y-58118342D01*
X84282729Y-58134867D01*
X84395728Y-58160836D01*
X84460538Y-58185181D01*
X84460538Y-58624818D01*
X84186131Y-58610774D01*
X84086993Y-58621607D01*
X84034945Y-58647166D01*
X84004841Y-58692846D01*
X83992935Y-58773196D01*
X84211288Y-58773196D01*
X84211288Y-59232372D01*
X83992935Y-59232372D01*
X83992935Y-59870823D01*
X84211288Y-59870823D01*
X84211288Y-60330000D01*
X83225768Y-60330000D01*
X83225768Y-59870823D01*
G37*
D11*
X150333333Y-119647247D02*
X150333333Y-120361532D01*
X150333333Y-120361532D02*
X150285714Y-120504389D01*
X150285714Y-120504389D02*
X150190476Y-120599628D01*
X150190476Y-120599628D02*
X150047619Y-120647247D01*
X150047619Y-120647247D02*
X149952381Y-120647247D01*
X151238095Y-119980580D02*
X151238095Y-120647247D01*
X150809524Y-119980580D02*
X150809524Y-120504389D01*
X150809524Y-120504389D02*
X150857143Y-120599628D01*
X150857143Y-120599628D02*
X150952381Y-120647247D01*
X150952381Y-120647247D02*
X151095238Y-120647247D01*
X151095238Y-120647247D02*
X151190476Y-120599628D01*
X151190476Y-120599628D02*
X151238095Y-120552008D01*
X151714286Y-120647247D02*
X151714286Y-119980580D01*
X151714286Y-120075818D02*
X151761905Y-120028199D01*
X151761905Y-120028199D02*
X151857143Y-119980580D01*
X151857143Y-119980580D02*
X152000000Y-119980580D01*
X152000000Y-119980580D02*
X152095238Y-120028199D01*
X152095238Y-120028199D02*
X152142857Y-120123437D01*
X152142857Y-120123437D02*
X152142857Y-120647247D01*
X152142857Y-120123437D02*
X152190476Y-120028199D01*
X152190476Y-120028199D02*
X152285714Y-119980580D01*
X152285714Y-119980580D02*
X152428571Y-119980580D01*
X152428571Y-119980580D02*
X152523810Y-120028199D01*
X152523810Y-120028199D02*
X152571429Y-120123437D01*
X152571429Y-120123437D02*
X152571429Y-120647247D01*
X153047619Y-119980580D02*
X153047619Y-120980580D01*
X153047619Y-120028199D02*
X153142857Y-119980580D01*
X153142857Y-119980580D02*
X153333333Y-119980580D01*
X153333333Y-119980580D02*
X153428571Y-120028199D01*
X153428571Y-120028199D02*
X153476190Y-120075818D01*
X153476190Y-120075818D02*
X153523809Y-120171056D01*
X153523809Y-120171056D02*
X153523809Y-120456770D01*
X153523809Y-120456770D02*
X153476190Y-120552008D01*
X153476190Y-120552008D02*
X153428571Y-120599628D01*
X153428571Y-120599628D02*
X153333333Y-120647247D01*
X153333333Y-120647247D02*
X153142857Y-120647247D01*
X153142857Y-120647247D02*
X153047619Y-120599628D01*
X154619048Y-119980580D02*
X154809524Y-120647247D01*
X154809524Y-120647247D02*
X155000000Y-120171056D01*
X155000000Y-120171056D02*
X155190476Y-120647247D01*
X155190476Y-120647247D02*
X155380952Y-119980580D01*
X155761905Y-120647247D02*
X155761905Y-119647247D01*
X156190476Y-120647247D02*
X156190476Y-120123437D01*
X156190476Y-120123437D02*
X156142857Y-120028199D01*
X156142857Y-120028199D02*
X156047619Y-119980580D01*
X156047619Y-119980580D02*
X155904762Y-119980580D01*
X155904762Y-119980580D02*
X155809524Y-120028199D01*
X155809524Y-120028199D02*
X155761905Y-120075818D01*
X157047619Y-120599628D02*
X156952381Y-120647247D01*
X156952381Y-120647247D02*
X156761905Y-120647247D01*
X156761905Y-120647247D02*
X156666667Y-120599628D01*
X156666667Y-120599628D02*
X156619048Y-120504389D01*
X156619048Y-120504389D02*
X156619048Y-120123437D01*
X156619048Y-120123437D02*
X156666667Y-120028199D01*
X156666667Y-120028199D02*
X156761905Y-119980580D01*
X156761905Y-119980580D02*
X156952381Y-119980580D01*
X156952381Y-119980580D02*
X157047619Y-120028199D01*
X157047619Y-120028199D02*
X157095238Y-120123437D01*
X157095238Y-120123437D02*
X157095238Y-120218675D01*
X157095238Y-120218675D02*
X156619048Y-120313913D01*
X157523810Y-119980580D02*
X157523810Y-120647247D01*
X157523810Y-120075818D02*
X157571429Y-120028199D01*
X157571429Y-120028199D02*
X157666667Y-119980580D01*
X157666667Y-119980580D02*
X157809524Y-119980580D01*
X157809524Y-119980580D02*
X157904762Y-120028199D01*
X157904762Y-120028199D02*
X157952381Y-120123437D01*
X157952381Y-120123437D02*
X157952381Y-120647247D01*
X150595238Y-121733381D02*
X150738095Y-121781000D01*
X150738095Y-121781000D02*
X150785714Y-121828619D01*
X150785714Y-121828619D02*
X150833333Y-121923857D01*
X150833333Y-121923857D02*
X150833333Y-122066714D01*
X150833333Y-122066714D02*
X150785714Y-122161952D01*
X150785714Y-122161952D02*
X150738095Y-122209572D01*
X150738095Y-122209572D02*
X150642857Y-122257191D01*
X150642857Y-122257191D02*
X150261905Y-122257191D01*
X150261905Y-122257191D02*
X150261905Y-121257191D01*
X150261905Y-121257191D02*
X150595238Y-121257191D01*
X150595238Y-121257191D02*
X150690476Y-121304810D01*
X150690476Y-121304810D02*
X150738095Y-121352429D01*
X150738095Y-121352429D02*
X150785714Y-121447667D01*
X150785714Y-121447667D02*
X150785714Y-121542905D01*
X150785714Y-121542905D02*
X150738095Y-121638143D01*
X150738095Y-121638143D02*
X150690476Y-121685762D01*
X150690476Y-121685762D02*
X150595238Y-121733381D01*
X150595238Y-121733381D02*
X150261905Y-121733381D01*
X151214286Y-121971476D02*
X151690476Y-121971476D01*
X151119048Y-122257191D02*
X151452381Y-121257191D01*
X151452381Y-121257191D02*
X151785714Y-122257191D01*
X152690476Y-122161952D02*
X152642857Y-122209572D01*
X152642857Y-122209572D02*
X152500000Y-122257191D01*
X152500000Y-122257191D02*
X152404762Y-122257191D01*
X152404762Y-122257191D02*
X152261905Y-122209572D01*
X152261905Y-122209572D02*
X152166667Y-122114333D01*
X152166667Y-122114333D02*
X152119048Y-122019095D01*
X152119048Y-122019095D02*
X152071429Y-121828619D01*
X152071429Y-121828619D02*
X152071429Y-121685762D01*
X152071429Y-121685762D02*
X152119048Y-121495286D01*
X152119048Y-121495286D02*
X152166667Y-121400048D01*
X152166667Y-121400048D02*
X152261905Y-121304810D01*
X152261905Y-121304810D02*
X152404762Y-121257191D01*
X152404762Y-121257191D02*
X152500000Y-121257191D01*
X152500000Y-121257191D02*
X152642857Y-121304810D01*
X152642857Y-121304810D02*
X152690476Y-121352429D01*
X153119048Y-122257191D02*
X153119048Y-121257191D01*
X153690476Y-122257191D02*
X153261905Y-121685762D01*
X153690476Y-121257191D02*
X153119048Y-121828619D01*
X154833334Y-122209572D02*
X154976191Y-122257191D01*
X154976191Y-122257191D02*
X155214286Y-122257191D01*
X155214286Y-122257191D02*
X155309524Y-122209572D01*
X155309524Y-122209572D02*
X155357143Y-122161952D01*
X155357143Y-122161952D02*
X155404762Y-122066714D01*
X155404762Y-122066714D02*
X155404762Y-121971476D01*
X155404762Y-121971476D02*
X155357143Y-121876238D01*
X155357143Y-121876238D02*
X155309524Y-121828619D01*
X155309524Y-121828619D02*
X155214286Y-121781000D01*
X155214286Y-121781000D02*
X155023810Y-121733381D01*
X155023810Y-121733381D02*
X154928572Y-121685762D01*
X154928572Y-121685762D02*
X154880953Y-121638143D01*
X154880953Y-121638143D02*
X154833334Y-121542905D01*
X154833334Y-121542905D02*
X154833334Y-121447667D01*
X154833334Y-121447667D02*
X154880953Y-121352429D01*
X154880953Y-121352429D02*
X154928572Y-121304810D01*
X154928572Y-121304810D02*
X155023810Y-121257191D01*
X155023810Y-121257191D02*
X155261905Y-121257191D01*
X155261905Y-121257191D02*
X155404762Y-121304810D01*
X155833334Y-122257191D02*
X155833334Y-121257191D01*
X156309524Y-122257191D02*
X156309524Y-121257191D01*
X156309524Y-121257191D02*
X156547619Y-121257191D01*
X156547619Y-121257191D02*
X156690476Y-121304810D01*
X156690476Y-121304810D02*
X156785714Y-121400048D01*
X156785714Y-121400048D02*
X156833333Y-121495286D01*
X156833333Y-121495286D02*
X156880952Y-121685762D01*
X156880952Y-121685762D02*
X156880952Y-121828619D01*
X156880952Y-121828619D02*
X156833333Y-122019095D01*
X156833333Y-122019095D02*
X156785714Y-122114333D01*
X156785714Y-122114333D02*
X156690476Y-122209572D01*
X156690476Y-122209572D02*
X156547619Y-122257191D01*
X156547619Y-122257191D02*
X156309524Y-122257191D01*
X157309524Y-121733381D02*
X157642857Y-121733381D01*
X157785714Y-122257191D02*
X157309524Y-122257191D01*
X157309524Y-122257191D02*
X157309524Y-121257191D01*
X157309524Y-121257191D02*
X157785714Y-121257191D01*
D13*
X114652200Y-128809523D02*
X114699819Y-128666666D01*
X114699819Y-128666666D02*
X114699819Y-128428571D01*
X114699819Y-128428571D02*
X114652200Y-128333333D01*
X114652200Y-128333333D02*
X114604580Y-128285714D01*
X114604580Y-128285714D02*
X114509342Y-128238095D01*
X114509342Y-128238095D02*
X114414104Y-128238095D01*
X114414104Y-128238095D02*
X114318866Y-128285714D01*
X114318866Y-128285714D02*
X114271247Y-128333333D01*
X114271247Y-128333333D02*
X114223628Y-128428571D01*
X114223628Y-128428571D02*
X114176009Y-128619047D01*
X114176009Y-128619047D02*
X114128390Y-128714285D01*
X114128390Y-128714285D02*
X114080771Y-128761904D01*
X114080771Y-128761904D02*
X113985533Y-128809523D01*
X113985533Y-128809523D02*
X113890295Y-128809523D01*
X113890295Y-128809523D02*
X113795057Y-128761904D01*
X113795057Y-128761904D02*
X113747438Y-128714285D01*
X113747438Y-128714285D02*
X113699819Y-128619047D01*
X113699819Y-128619047D02*
X113699819Y-128380952D01*
X113699819Y-128380952D02*
X113747438Y-128238095D01*
X113699819Y-127904761D02*
X114699819Y-127666666D01*
X114699819Y-127666666D02*
X113985533Y-127476190D01*
X113985533Y-127476190D02*
X114699819Y-127285714D01*
X114699819Y-127285714D02*
X113699819Y-127047619D01*
X114699819Y-126142857D02*
X114699819Y-126714285D01*
X114699819Y-126428571D02*
X113699819Y-126428571D01*
X113699819Y-126428571D02*
X113842676Y-126523809D01*
X113842676Y-126523809D02*
X113937914Y-126619047D01*
X113937914Y-126619047D02*
X113985533Y-126714285D01*
X113699819Y-125285714D02*
X113699819Y-125476190D01*
X113699819Y-125476190D02*
X113747438Y-125571428D01*
X113747438Y-125571428D02*
X113795057Y-125619047D01*
X113795057Y-125619047D02*
X113937914Y-125714285D01*
X113937914Y-125714285D02*
X114128390Y-125761904D01*
X114128390Y-125761904D02*
X114509342Y-125761904D01*
X114509342Y-125761904D02*
X114604580Y-125714285D01*
X114604580Y-125714285D02*
X114652200Y-125666666D01*
X114652200Y-125666666D02*
X114699819Y-125571428D01*
X114699819Y-125571428D02*
X114699819Y-125380952D01*
X114699819Y-125380952D02*
X114652200Y-125285714D01*
X114652200Y-125285714D02*
X114604580Y-125238095D01*
X114604580Y-125238095D02*
X114509342Y-125190476D01*
X114509342Y-125190476D02*
X114271247Y-125190476D01*
X114271247Y-125190476D02*
X114176009Y-125238095D01*
X114176009Y-125238095D02*
X114128390Y-125285714D01*
X114128390Y-125285714D02*
X114080771Y-125380952D01*
X114080771Y-125380952D02*
X114080771Y-125571428D01*
X114080771Y-125571428D02*
X114128390Y-125666666D01*
X114128390Y-125666666D02*
X114176009Y-125714285D01*
X114176009Y-125714285D02*
X114271247Y-125761904D01*
X123652200Y-83333332D02*
X123699819Y-83190475D01*
X123699819Y-83190475D02*
X123699819Y-82952380D01*
X123699819Y-82952380D02*
X123652200Y-82857142D01*
X123652200Y-82857142D02*
X123604580Y-82809523D01*
X123604580Y-82809523D02*
X123509342Y-82761904D01*
X123509342Y-82761904D02*
X123414104Y-82761904D01*
X123414104Y-82761904D02*
X123318866Y-82809523D01*
X123318866Y-82809523D02*
X123271247Y-82857142D01*
X123271247Y-82857142D02*
X123223628Y-82952380D01*
X123223628Y-82952380D02*
X123176009Y-83142856D01*
X123176009Y-83142856D02*
X123128390Y-83238094D01*
X123128390Y-83238094D02*
X123080771Y-83285713D01*
X123080771Y-83285713D02*
X122985533Y-83333332D01*
X122985533Y-83333332D02*
X122890295Y-83333332D01*
X122890295Y-83333332D02*
X122795057Y-83285713D01*
X122795057Y-83285713D02*
X122747438Y-83238094D01*
X122747438Y-83238094D02*
X122699819Y-83142856D01*
X122699819Y-83142856D02*
X122699819Y-82904761D01*
X122699819Y-82904761D02*
X122747438Y-82761904D01*
X122699819Y-82428570D02*
X123699819Y-82190475D01*
X123699819Y-82190475D02*
X122985533Y-81999999D01*
X122985533Y-81999999D02*
X123699819Y-81809523D01*
X123699819Y-81809523D02*
X122699819Y-81571428D01*
X123699819Y-81142856D02*
X123699819Y-80952380D01*
X123699819Y-80952380D02*
X123652200Y-80857142D01*
X123652200Y-80857142D02*
X123604580Y-80809523D01*
X123604580Y-80809523D02*
X123461723Y-80714285D01*
X123461723Y-80714285D02*
X123271247Y-80666666D01*
X123271247Y-80666666D02*
X122890295Y-80666666D01*
X122890295Y-80666666D02*
X122795057Y-80714285D01*
X122795057Y-80714285D02*
X122747438Y-80761904D01*
X122747438Y-80761904D02*
X122699819Y-80857142D01*
X122699819Y-80857142D02*
X122699819Y-81047618D01*
X122699819Y-81047618D02*
X122747438Y-81142856D01*
X122747438Y-81142856D02*
X122795057Y-81190475D01*
X122795057Y-81190475D02*
X122890295Y-81238094D01*
X122890295Y-81238094D02*
X123128390Y-81238094D01*
X123128390Y-81238094D02*
X123223628Y-81190475D01*
X123223628Y-81190475D02*
X123271247Y-81142856D01*
X123271247Y-81142856D02*
X123318866Y-81047618D01*
X123318866Y-81047618D02*
X123318866Y-80857142D01*
X123318866Y-80857142D02*
X123271247Y-80761904D01*
X123271247Y-80761904D02*
X123223628Y-80714285D01*
X123223628Y-80714285D02*
X123128390Y-80666666D01*
X142652200Y-104809523D02*
X142699819Y-104666666D01*
X142699819Y-104666666D02*
X142699819Y-104428571D01*
X142699819Y-104428571D02*
X142652200Y-104333333D01*
X142652200Y-104333333D02*
X142604580Y-104285714D01*
X142604580Y-104285714D02*
X142509342Y-104238095D01*
X142509342Y-104238095D02*
X142414104Y-104238095D01*
X142414104Y-104238095D02*
X142318866Y-104285714D01*
X142318866Y-104285714D02*
X142271247Y-104333333D01*
X142271247Y-104333333D02*
X142223628Y-104428571D01*
X142223628Y-104428571D02*
X142176009Y-104619047D01*
X142176009Y-104619047D02*
X142128390Y-104714285D01*
X142128390Y-104714285D02*
X142080771Y-104761904D01*
X142080771Y-104761904D02*
X141985533Y-104809523D01*
X141985533Y-104809523D02*
X141890295Y-104809523D01*
X141890295Y-104809523D02*
X141795057Y-104761904D01*
X141795057Y-104761904D02*
X141747438Y-104714285D01*
X141747438Y-104714285D02*
X141699819Y-104619047D01*
X141699819Y-104619047D02*
X141699819Y-104380952D01*
X141699819Y-104380952D02*
X141747438Y-104238095D01*
X141699819Y-103904761D02*
X142699819Y-103666666D01*
X142699819Y-103666666D02*
X141985533Y-103476190D01*
X141985533Y-103476190D02*
X142699819Y-103285714D01*
X142699819Y-103285714D02*
X141699819Y-103047619D01*
X142699819Y-102142857D02*
X142699819Y-102714285D01*
X142699819Y-102428571D02*
X141699819Y-102428571D01*
X141699819Y-102428571D02*
X141842676Y-102523809D01*
X141842676Y-102523809D02*
X141937914Y-102619047D01*
X141937914Y-102619047D02*
X141985533Y-102714285D01*
X141699819Y-101238095D02*
X141699819Y-101714285D01*
X141699819Y-101714285D02*
X142176009Y-101761904D01*
X142176009Y-101761904D02*
X142128390Y-101714285D01*
X142128390Y-101714285D02*
X142080771Y-101619047D01*
X142080771Y-101619047D02*
X142080771Y-101380952D01*
X142080771Y-101380952D02*
X142128390Y-101285714D01*
X142128390Y-101285714D02*
X142176009Y-101238095D01*
X142176009Y-101238095D02*
X142271247Y-101190476D01*
X142271247Y-101190476D02*
X142509342Y-101190476D01*
X142509342Y-101190476D02*
X142604580Y-101238095D01*
X142604580Y-101238095D02*
X142652200Y-101285714D01*
X142652200Y-101285714D02*
X142699819Y-101380952D01*
X142699819Y-101380952D02*
X142699819Y-101619047D01*
X142699819Y-101619047D02*
X142652200Y-101714285D01*
X142652200Y-101714285D02*
X142604580Y-101761904D01*
X149666666Y-126204819D02*
X149666666Y-126919104D01*
X149666666Y-126919104D02*
X149619047Y-127061961D01*
X149619047Y-127061961D02*
X149523809Y-127157200D01*
X149523809Y-127157200D02*
X149380952Y-127204819D01*
X149380952Y-127204819D02*
X149285714Y-127204819D01*
X150142857Y-127204819D02*
X150142857Y-126204819D01*
X150142857Y-126204819D02*
X150523809Y-126204819D01*
X150523809Y-126204819D02*
X150619047Y-126252438D01*
X150619047Y-126252438D02*
X150666666Y-126300057D01*
X150666666Y-126300057D02*
X150714285Y-126395295D01*
X150714285Y-126395295D02*
X150714285Y-126538152D01*
X150714285Y-126538152D02*
X150666666Y-126633390D01*
X150666666Y-126633390D02*
X150619047Y-126681009D01*
X150619047Y-126681009D02*
X150523809Y-126728628D01*
X150523809Y-126728628D02*
X150142857Y-126728628D01*
X151095238Y-126300057D02*
X151142857Y-126252438D01*
X151142857Y-126252438D02*
X151238095Y-126204819D01*
X151238095Y-126204819D02*
X151476190Y-126204819D01*
X151476190Y-126204819D02*
X151571428Y-126252438D01*
X151571428Y-126252438D02*
X151619047Y-126300057D01*
X151619047Y-126300057D02*
X151666666Y-126395295D01*
X151666666Y-126395295D02*
X151666666Y-126490533D01*
X151666666Y-126490533D02*
X151619047Y-126633390D01*
X151619047Y-126633390D02*
X151047619Y-127204819D01*
X151047619Y-127204819D02*
X151666666Y-127204819D01*
X123652200Y-64333332D02*
X123699819Y-64190475D01*
X123699819Y-64190475D02*
X123699819Y-63952380D01*
X123699819Y-63952380D02*
X123652200Y-63857142D01*
X123652200Y-63857142D02*
X123604580Y-63809523D01*
X123604580Y-63809523D02*
X123509342Y-63761904D01*
X123509342Y-63761904D02*
X123414104Y-63761904D01*
X123414104Y-63761904D02*
X123318866Y-63809523D01*
X123318866Y-63809523D02*
X123271247Y-63857142D01*
X123271247Y-63857142D02*
X123223628Y-63952380D01*
X123223628Y-63952380D02*
X123176009Y-64142856D01*
X123176009Y-64142856D02*
X123128390Y-64238094D01*
X123128390Y-64238094D02*
X123080771Y-64285713D01*
X123080771Y-64285713D02*
X122985533Y-64333332D01*
X122985533Y-64333332D02*
X122890295Y-64333332D01*
X122890295Y-64333332D02*
X122795057Y-64285713D01*
X122795057Y-64285713D02*
X122747438Y-64238094D01*
X122747438Y-64238094D02*
X122699819Y-64142856D01*
X122699819Y-64142856D02*
X122699819Y-63904761D01*
X122699819Y-63904761D02*
X122747438Y-63761904D01*
X122699819Y-63428570D02*
X123699819Y-63190475D01*
X123699819Y-63190475D02*
X122985533Y-62999999D01*
X122985533Y-62999999D02*
X123699819Y-62809523D01*
X123699819Y-62809523D02*
X122699819Y-62571428D01*
X123033152Y-61761904D02*
X123699819Y-61761904D01*
X122652200Y-61999999D02*
X123366485Y-62238094D01*
X123366485Y-62238094D02*
X123366485Y-61619047D01*
X83162200Y-90333332D02*
X83209819Y-90190475D01*
X83209819Y-90190475D02*
X83209819Y-89952380D01*
X83209819Y-89952380D02*
X83162200Y-89857142D01*
X83162200Y-89857142D02*
X83114580Y-89809523D01*
X83114580Y-89809523D02*
X83019342Y-89761904D01*
X83019342Y-89761904D02*
X82924104Y-89761904D01*
X82924104Y-89761904D02*
X82828866Y-89809523D01*
X82828866Y-89809523D02*
X82781247Y-89857142D01*
X82781247Y-89857142D02*
X82733628Y-89952380D01*
X82733628Y-89952380D02*
X82686009Y-90142856D01*
X82686009Y-90142856D02*
X82638390Y-90238094D01*
X82638390Y-90238094D02*
X82590771Y-90285713D01*
X82590771Y-90285713D02*
X82495533Y-90333332D01*
X82495533Y-90333332D02*
X82400295Y-90333332D01*
X82400295Y-90333332D02*
X82305057Y-90285713D01*
X82305057Y-90285713D02*
X82257438Y-90238094D01*
X82257438Y-90238094D02*
X82209819Y-90142856D01*
X82209819Y-90142856D02*
X82209819Y-89904761D01*
X82209819Y-89904761D02*
X82257438Y-89761904D01*
X82209819Y-89428570D02*
X83209819Y-89190475D01*
X83209819Y-89190475D02*
X82495533Y-88999999D01*
X82495533Y-88999999D02*
X83209819Y-88809523D01*
X83209819Y-88809523D02*
X82209819Y-88571428D01*
X82209819Y-87761904D02*
X82209819Y-87952380D01*
X82209819Y-87952380D02*
X82257438Y-88047618D01*
X82257438Y-88047618D02*
X82305057Y-88095237D01*
X82305057Y-88095237D02*
X82447914Y-88190475D01*
X82447914Y-88190475D02*
X82638390Y-88238094D01*
X82638390Y-88238094D02*
X83019342Y-88238094D01*
X83019342Y-88238094D02*
X83114580Y-88190475D01*
X83114580Y-88190475D02*
X83162200Y-88142856D01*
X83162200Y-88142856D02*
X83209819Y-88047618D01*
X83209819Y-88047618D02*
X83209819Y-87857142D01*
X83209819Y-87857142D02*
X83162200Y-87761904D01*
X83162200Y-87761904D02*
X83114580Y-87714285D01*
X83114580Y-87714285D02*
X83019342Y-87666666D01*
X83019342Y-87666666D02*
X82781247Y-87666666D01*
X82781247Y-87666666D02*
X82686009Y-87714285D01*
X82686009Y-87714285D02*
X82638390Y-87761904D01*
X82638390Y-87761904D02*
X82590771Y-87857142D01*
X82590771Y-87857142D02*
X82590771Y-88047618D01*
X82590771Y-88047618D02*
X82638390Y-88142856D01*
X82638390Y-88142856D02*
X82686009Y-88190475D01*
X82686009Y-88190475D02*
X82781247Y-88238094D01*
X142652200Y-66333332D02*
X142699819Y-66190475D01*
X142699819Y-66190475D02*
X142699819Y-65952380D01*
X142699819Y-65952380D02*
X142652200Y-65857142D01*
X142652200Y-65857142D02*
X142604580Y-65809523D01*
X142604580Y-65809523D02*
X142509342Y-65761904D01*
X142509342Y-65761904D02*
X142414104Y-65761904D01*
X142414104Y-65761904D02*
X142318866Y-65809523D01*
X142318866Y-65809523D02*
X142271247Y-65857142D01*
X142271247Y-65857142D02*
X142223628Y-65952380D01*
X142223628Y-65952380D02*
X142176009Y-66142856D01*
X142176009Y-66142856D02*
X142128390Y-66238094D01*
X142128390Y-66238094D02*
X142080771Y-66285713D01*
X142080771Y-66285713D02*
X141985533Y-66333332D01*
X141985533Y-66333332D02*
X141890295Y-66333332D01*
X141890295Y-66333332D02*
X141795057Y-66285713D01*
X141795057Y-66285713D02*
X141747438Y-66238094D01*
X141747438Y-66238094D02*
X141699819Y-66142856D01*
X141699819Y-66142856D02*
X141699819Y-65904761D01*
X141699819Y-65904761D02*
X141747438Y-65761904D01*
X141699819Y-65428570D02*
X142699819Y-65190475D01*
X142699819Y-65190475D02*
X141985533Y-64999999D01*
X141985533Y-64999999D02*
X142699819Y-64809523D01*
X142699819Y-64809523D02*
X141699819Y-64571428D01*
X141699819Y-63714285D02*
X141699819Y-64190475D01*
X141699819Y-64190475D02*
X142176009Y-64238094D01*
X142176009Y-64238094D02*
X142128390Y-64190475D01*
X142128390Y-64190475D02*
X142080771Y-64095237D01*
X142080771Y-64095237D02*
X142080771Y-63857142D01*
X142080771Y-63857142D02*
X142128390Y-63761904D01*
X142128390Y-63761904D02*
X142176009Y-63714285D01*
X142176009Y-63714285D02*
X142271247Y-63666666D01*
X142271247Y-63666666D02*
X142509342Y-63666666D01*
X142509342Y-63666666D02*
X142604580Y-63714285D01*
X142604580Y-63714285D02*
X142652200Y-63761904D01*
X142652200Y-63761904D02*
X142699819Y-63857142D01*
X142699819Y-63857142D02*
X142699819Y-64095237D01*
X142699819Y-64095237D02*
X142652200Y-64190475D01*
X142652200Y-64190475D02*
X142604580Y-64238094D01*
X152652200Y-133809523D02*
X152699819Y-133666666D01*
X152699819Y-133666666D02*
X152699819Y-133428571D01*
X152699819Y-133428571D02*
X152652200Y-133333333D01*
X152652200Y-133333333D02*
X152604580Y-133285714D01*
X152604580Y-133285714D02*
X152509342Y-133238095D01*
X152509342Y-133238095D02*
X152414104Y-133238095D01*
X152414104Y-133238095D02*
X152318866Y-133285714D01*
X152318866Y-133285714D02*
X152271247Y-133333333D01*
X152271247Y-133333333D02*
X152223628Y-133428571D01*
X152223628Y-133428571D02*
X152176009Y-133619047D01*
X152176009Y-133619047D02*
X152128390Y-133714285D01*
X152128390Y-133714285D02*
X152080771Y-133761904D01*
X152080771Y-133761904D02*
X151985533Y-133809523D01*
X151985533Y-133809523D02*
X151890295Y-133809523D01*
X151890295Y-133809523D02*
X151795057Y-133761904D01*
X151795057Y-133761904D02*
X151747438Y-133714285D01*
X151747438Y-133714285D02*
X151699819Y-133619047D01*
X151699819Y-133619047D02*
X151699819Y-133380952D01*
X151699819Y-133380952D02*
X151747438Y-133238095D01*
X151699819Y-132904761D02*
X152699819Y-132666666D01*
X152699819Y-132666666D02*
X151985533Y-132476190D01*
X151985533Y-132476190D02*
X152699819Y-132285714D01*
X152699819Y-132285714D02*
X151699819Y-132047619D01*
X152699819Y-131142857D02*
X152699819Y-131714285D01*
X152699819Y-131428571D02*
X151699819Y-131428571D01*
X151699819Y-131428571D02*
X151842676Y-131523809D01*
X151842676Y-131523809D02*
X151937914Y-131619047D01*
X151937914Y-131619047D02*
X151985533Y-131714285D01*
X152128390Y-130571428D02*
X152080771Y-130666666D01*
X152080771Y-130666666D02*
X152033152Y-130714285D01*
X152033152Y-130714285D02*
X151937914Y-130761904D01*
X151937914Y-130761904D02*
X151890295Y-130761904D01*
X151890295Y-130761904D02*
X151795057Y-130714285D01*
X151795057Y-130714285D02*
X151747438Y-130666666D01*
X151747438Y-130666666D02*
X151699819Y-130571428D01*
X151699819Y-130571428D02*
X151699819Y-130380952D01*
X151699819Y-130380952D02*
X151747438Y-130285714D01*
X151747438Y-130285714D02*
X151795057Y-130238095D01*
X151795057Y-130238095D02*
X151890295Y-130190476D01*
X151890295Y-130190476D02*
X151937914Y-130190476D01*
X151937914Y-130190476D02*
X152033152Y-130238095D01*
X152033152Y-130238095D02*
X152080771Y-130285714D01*
X152080771Y-130285714D02*
X152128390Y-130380952D01*
X152128390Y-130380952D02*
X152128390Y-130571428D01*
X152128390Y-130571428D02*
X152176009Y-130666666D01*
X152176009Y-130666666D02*
X152223628Y-130714285D01*
X152223628Y-130714285D02*
X152318866Y-130761904D01*
X152318866Y-130761904D02*
X152509342Y-130761904D01*
X152509342Y-130761904D02*
X152604580Y-130714285D01*
X152604580Y-130714285D02*
X152652200Y-130666666D01*
X152652200Y-130666666D02*
X152699819Y-130571428D01*
X152699819Y-130571428D02*
X152699819Y-130380952D01*
X152699819Y-130380952D02*
X152652200Y-130285714D01*
X152652200Y-130285714D02*
X152604580Y-130238095D01*
X152604580Y-130238095D02*
X152509342Y-130190476D01*
X152509342Y-130190476D02*
X152318866Y-130190476D01*
X152318866Y-130190476D02*
X152223628Y-130238095D01*
X152223628Y-130238095D02*
X152176009Y-130285714D01*
X152176009Y-130285714D02*
X152128390Y-130380952D01*
X83162201Y-109809523D02*
X83209820Y-109666666D01*
X83209820Y-109666666D02*
X83209820Y-109428571D01*
X83209820Y-109428571D02*
X83162201Y-109333333D01*
X83162201Y-109333333D02*
X83114581Y-109285714D01*
X83114581Y-109285714D02*
X83019343Y-109238095D01*
X83019343Y-109238095D02*
X82924105Y-109238095D01*
X82924105Y-109238095D02*
X82828867Y-109285714D01*
X82828867Y-109285714D02*
X82781248Y-109333333D01*
X82781248Y-109333333D02*
X82733629Y-109428571D01*
X82733629Y-109428571D02*
X82686010Y-109619047D01*
X82686010Y-109619047D02*
X82638391Y-109714285D01*
X82638391Y-109714285D02*
X82590772Y-109761904D01*
X82590772Y-109761904D02*
X82495534Y-109809523D01*
X82495534Y-109809523D02*
X82400296Y-109809523D01*
X82400296Y-109809523D02*
X82305058Y-109761904D01*
X82305058Y-109761904D02*
X82257439Y-109714285D01*
X82257439Y-109714285D02*
X82209820Y-109619047D01*
X82209820Y-109619047D02*
X82209820Y-109380952D01*
X82209820Y-109380952D02*
X82257439Y-109238095D01*
X82209820Y-108904761D02*
X83209820Y-108666666D01*
X83209820Y-108666666D02*
X82495534Y-108476190D01*
X82495534Y-108476190D02*
X83209820Y-108285714D01*
X83209820Y-108285714D02*
X82209820Y-108047619D01*
X83209820Y-107142857D02*
X83209820Y-107714285D01*
X83209820Y-107428571D02*
X82209820Y-107428571D01*
X82209820Y-107428571D02*
X82352677Y-107523809D01*
X82352677Y-107523809D02*
X82447915Y-107619047D01*
X82447915Y-107619047D02*
X82495534Y-107714285D01*
X83209820Y-106190476D02*
X83209820Y-106761904D01*
X83209820Y-106476190D02*
X82209820Y-106476190D01*
X82209820Y-106476190D02*
X82352677Y-106571428D01*
X82352677Y-106571428D02*
X82447915Y-106666666D01*
X82447915Y-106666666D02*
X82495534Y-106761904D01*
X99097981Y-135215057D02*
X99136077Y-135167438D01*
X99136077Y-135167438D02*
X99212267Y-135119819D01*
X99212267Y-135119819D02*
X99402743Y-135119819D01*
X99402743Y-135119819D02*
X99478934Y-135167438D01*
X99478934Y-135167438D02*
X99517029Y-135215057D01*
X99517029Y-135215057D02*
X99555124Y-135310295D01*
X99555124Y-135310295D02*
X99555124Y-135405533D01*
X99555124Y-135405533D02*
X99517029Y-135548390D01*
X99517029Y-135548390D02*
X99059886Y-136119819D01*
X99059886Y-136119819D02*
X99555124Y-136119819D01*
X100012267Y-135548390D02*
X99936077Y-135500771D01*
X99936077Y-135500771D02*
X99897982Y-135453152D01*
X99897982Y-135453152D02*
X99859886Y-135357914D01*
X99859886Y-135357914D02*
X99859886Y-135310295D01*
X99859886Y-135310295D02*
X99897982Y-135215057D01*
X99897982Y-135215057D02*
X99936077Y-135167438D01*
X99936077Y-135167438D02*
X100012267Y-135119819D01*
X100012267Y-135119819D02*
X100164648Y-135119819D01*
X100164648Y-135119819D02*
X100240839Y-135167438D01*
X100240839Y-135167438D02*
X100278934Y-135215057D01*
X100278934Y-135215057D02*
X100317029Y-135310295D01*
X100317029Y-135310295D02*
X100317029Y-135357914D01*
X100317029Y-135357914D02*
X100278934Y-135453152D01*
X100278934Y-135453152D02*
X100240839Y-135500771D01*
X100240839Y-135500771D02*
X100164648Y-135548390D01*
X100164648Y-135548390D02*
X100012267Y-135548390D01*
X100012267Y-135548390D02*
X99936077Y-135596009D01*
X99936077Y-135596009D02*
X99897982Y-135643628D01*
X99897982Y-135643628D02*
X99859886Y-135738866D01*
X99859886Y-135738866D02*
X99859886Y-135929342D01*
X99859886Y-135929342D02*
X99897982Y-136024580D01*
X99897982Y-136024580D02*
X99936077Y-136072200D01*
X99936077Y-136072200D02*
X100012267Y-136119819D01*
X100012267Y-136119819D02*
X100164648Y-136119819D01*
X100164648Y-136119819D02*
X100240839Y-136072200D01*
X100240839Y-136072200D02*
X100278934Y-136024580D01*
X100278934Y-136024580D02*
X100317029Y-135929342D01*
X100317029Y-135929342D02*
X100317029Y-135738866D01*
X100317029Y-135738866D02*
X100278934Y-135643628D01*
X100278934Y-135643628D02*
X100240839Y-135596009D01*
X100240839Y-135596009D02*
X100164648Y-135548390D01*
X92601569Y-114283695D02*
X92601569Y-114740838D01*
X92601569Y-114512266D02*
X91601569Y-114512266D01*
X91601569Y-114512266D02*
X91744426Y-114588457D01*
X91744426Y-114588457D02*
X91839664Y-114664647D01*
X91839664Y-114664647D02*
X91887283Y-114740838D01*
X109737029Y-136119819D02*
X109279886Y-136119819D01*
X109508458Y-136119819D02*
X109508458Y-135119819D01*
X109508458Y-135119819D02*
X109432267Y-135262676D01*
X109432267Y-135262676D02*
X109356077Y-135357914D01*
X109356077Y-135357914D02*
X109279886Y-135405533D01*
X110422744Y-135453152D02*
X110422744Y-136119819D01*
X110232268Y-135072200D02*
X110041791Y-135786485D01*
X110041791Y-135786485D02*
X110537030Y-135786485D01*
X89061569Y-114550364D02*
X89061569Y-114474174D01*
X89061569Y-114474174D02*
X89109188Y-114397983D01*
X89109188Y-114397983D02*
X89156807Y-114359888D01*
X89156807Y-114359888D02*
X89252045Y-114321793D01*
X89252045Y-114321793D02*
X89442521Y-114283698D01*
X89442521Y-114283698D02*
X89680616Y-114283698D01*
X89680616Y-114283698D02*
X89871092Y-114321793D01*
X89871092Y-114321793D02*
X89966330Y-114359888D01*
X89966330Y-114359888D02*
X90013950Y-114397983D01*
X90013950Y-114397983D02*
X90061569Y-114474174D01*
X90061569Y-114474174D02*
X90061569Y-114550364D01*
X90061569Y-114550364D02*
X90013950Y-114626555D01*
X90013950Y-114626555D02*
X89966330Y-114664650D01*
X89966330Y-114664650D02*
X89871092Y-114702745D01*
X89871092Y-114702745D02*
X89680616Y-114740841D01*
X89680616Y-114740841D02*
X89442521Y-114740841D01*
X89442521Y-114740841D02*
X89252045Y-114702745D01*
X89252045Y-114702745D02*
X89156807Y-114664650D01*
X89156807Y-114664650D02*
X89109188Y-114626555D01*
X89109188Y-114626555D02*
X89061569Y-114550364D01*
X101597981Y-135215057D02*
X101636077Y-135167438D01*
X101636077Y-135167438D02*
X101712267Y-135119819D01*
X101712267Y-135119819D02*
X101902743Y-135119819D01*
X101902743Y-135119819D02*
X101978934Y-135167438D01*
X101978934Y-135167438D02*
X102017029Y-135215057D01*
X102017029Y-135215057D02*
X102055124Y-135310295D01*
X102055124Y-135310295D02*
X102055124Y-135405533D01*
X102055124Y-135405533D02*
X102017029Y-135548390D01*
X102017029Y-135548390D02*
X101559886Y-136119819D01*
X101559886Y-136119819D02*
X102055124Y-136119819D01*
X102321791Y-135119819D02*
X102855125Y-135119819D01*
X102855125Y-135119819D02*
X102512267Y-136119819D01*
X89343219Y-135119819D02*
X88962267Y-135119819D01*
X88962267Y-135119819D02*
X88924171Y-135596009D01*
X88924171Y-135596009D02*
X88962267Y-135548390D01*
X88962267Y-135548390D02*
X89038457Y-135500771D01*
X89038457Y-135500771D02*
X89228933Y-135500771D01*
X89228933Y-135500771D02*
X89305124Y-135548390D01*
X89305124Y-135548390D02*
X89343219Y-135596009D01*
X89343219Y-135596009D02*
X89381314Y-135691247D01*
X89381314Y-135691247D02*
X89381314Y-135929342D01*
X89381314Y-135929342D02*
X89343219Y-136024580D01*
X89343219Y-136024580D02*
X89305124Y-136072200D01*
X89305124Y-136072200D02*
X89228933Y-136119819D01*
X89228933Y-136119819D02*
X89038457Y-136119819D01*
X89038457Y-136119819D02*
X88962267Y-136072200D01*
X88962267Y-136072200D02*
X88924171Y-136024580D01*
X89609886Y-135119819D02*
X89876553Y-136119819D01*
X89876553Y-136119819D02*
X90143219Y-135119819D01*
X96529886Y-135215057D02*
X96567982Y-135167438D01*
X96567982Y-135167438D02*
X96644172Y-135119819D01*
X96644172Y-135119819D02*
X96834648Y-135119819D01*
X96834648Y-135119819D02*
X96910839Y-135167438D01*
X96910839Y-135167438D02*
X96948934Y-135215057D01*
X96948934Y-135215057D02*
X96987029Y-135310295D01*
X96987029Y-135310295D02*
X96987029Y-135405533D01*
X96987029Y-135405533D02*
X96948934Y-135548390D01*
X96948934Y-135548390D02*
X96491791Y-136119819D01*
X96491791Y-136119819D02*
X96987029Y-136119819D01*
X97367982Y-136119819D02*
X97520363Y-136119819D01*
X97520363Y-136119819D02*
X97596553Y-136072200D01*
X97596553Y-136072200D02*
X97634649Y-136024580D01*
X97634649Y-136024580D02*
X97710839Y-135881723D01*
X97710839Y-135881723D02*
X97748934Y-135691247D01*
X97748934Y-135691247D02*
X97748934Y-135310295D01*
X97748934Y-135310295D02*
X97710839Y-135215057D01*
X97710839Y-135215057D02*
X97672744Y-135167438D01*
X97672744Y-135167438D02*
X97596553Y-135119819D01*
X97596553Y-135119819D02*
X97444172Y-135119819D01*
X97444172Y-135119819D02*
X97367982Y-135167438D01*
X97367982Y-135167438D02*
X97329887Y-135215057D01*
X97329887Y-135215057D02*
X97291791Y-135310295D01*
X97291791Y-135310295D02*
X97291791Y-135548390D01*
X97291791Y-135548390D02*
X97329887Y-135643628D01*
X97329887Y-135643628D02*
X97367982Y-135691247D01*
X97367982Y-135691247D02*
X97444172Y-135738866D01*
X97444172Y-135738866D02*
X97596553Y-135738866D01*
X97596553Y-135738866D02*
X97672744Y-135691247D01*
X97672744Y-135691247D02*
X97710839Y-135643628D01*
X97710839Y-135643628D02*
X97748934Y-135548390D01*
X93806077Y-135119819D02*
X94301315Y-135119819D01*
X94301315Y-135119819D02*
X94034649Y-135500771D01*
X94034649Y-135500771D02*
X94148934Y-135500771D01*
X94148934Y-135500771D02*
X94225125Y-135548390D01*
X94225125Y-135548390D02*
X94263220Y-135596009D01*
X94263220Y-135596009D02*
X94301315Y-135691247D01*
X94301315Y-135691247D02*
X94301315Y-135929342D01*
X94301315Y-135929342D02*
X94263220Y-136024580D01*
X94263220Y-136024580D02*
X94225125Y-136072200D01*
X94225125Y-136072200D02*
X94148934Y-136119819D01*
X94148934Y-136119819D02*
X93920363Y-136119819D01*
X93920363Y-136119819D02*
X93844172Y-136072200D01*
X93844172Y-136072200D02*
X93806077Y-136024580D01*
X94529887Y-135119819D02*
X94796554Y-136119819D01*
X94796554Y-136119819D02*
X95063220Y-135119819D01*
X95253696Y-135119819D02*
X95748934Y-135119819D01*
X95748934Y-135119819D02*
X95482268Y-135500771D01*
X95482268Y-135500771D02*
X95596553Y-135500771D01*
X95596553Y-135500771D02*
X95672744Y-135548390D01*
X95672744Y-135548390D02*
X95710839Y-135596009D01*
X95710839Y-135596009D02*
X95748934Y-135691247D01*
X95748934Y-135691247D02*
X95748934Y-135929342D01*
X95748934Y-135929342D02*
X95710839Y-136024580D01*
X95710839Y-136024580D02*
X95672744Y-136072200D01*
X95672744Y-136072200D02*
X95596553Y-136119819D01*
X95596553Y-136119819D02*
X95367982Y-136119819D01*
X95367982Y-136119819D02*
X95291791Y-136072200D01*
X95291791Y-136072200D02*
X95253696Y-136024580D01*
X106841569Y-114778934D02*
X106841569Y-114245600D01*
X106841569Y-114245600D02*
X107841569Y-114588458D01*
X113335819Y-122671792D02*
X113335819Y-123128935D01*
X113335819Y-122900363D02*
X112335819Y-122900363D01*
X112335819Y-122900363D02*
X112478676Y-122976554D01*
X112478676Y-122976554D02*
X112573914Y-123052744D01*
X112573914Y-123052744D02*
X112621533Y-123128935D01*
X112335819Y-122176553D02*
X112335819Y-122100363D01*
X112335819Y-122100363D02*
X112383438Y-122024172D01*
X112383438Y-122024172D02*
X112431057Y-121986077D01*
X112431057Y-121986077D02*
X112526295Y-121947982D01*
X112526295Y-121947982D02*
X112716771Y-121909887D01*
X112716771Y-121909887D02*
X112954866Y-121909887D01*
X112954866Y-121909887D02*
X113145342Y-121947982D01*
X113145342Y-121947982D02*
X113240580Y-121986077D01*
X113240580Y-121986077D02*
X113288200Y-122024172D01*
X113288200Y-122024172D02*
X113335819Y-122100363D01*
X113335819Y-122100363D02*
X113335819Y-122176553D01*
X113335819Y-122176553D02*
X113288200Y-122252744D01*
X113288200Y-122252744D02*
X113240580Y-122290839D01*
X113240580Y-122290839D02*
X113145342Y-122328934D01*
X113145342Y-122328934D02*
X112954866Y-122367030D01*
X112954866Y-122367030D02*
X112716771Y-122367030D01*
X112716771Y-122367030D02*
X112526295Y-122328934D01*
X112526295Y-122328934D02*
X112431057Y-122290839D01*
X112431057Y-122290839D02*
X112383438Y-122252744D01*
X112383438Y-122252744D02*
X112335819Y-122176553D01*
X101761568Y-114321793D02*
X101761568Y-114702745D01*
X101761568Y-114702745D02*
X102237758Y-114740841D01*
X102237758Y-114740841D02*
X102190139Y-114702745D01*
X102190139Y-114702745D02*
X102142520Y-114626555D01*
X102142520Y-114626555D02*
X102142520Y-114436079D01*
X102142520Y-114436079D02*
X102190139Y-114359888D01*
X102190139Y-114359888D02*
X102237758Y-114321793D01*
X102237758Y-114321793D02*
X102332996Y-114283698D01*
X102332996Y-114283698D02*
X102571091Y-114283698D01*
X102571091Y-114283698D02*
X102666329Y-114321793D01*
X102666329Y-114321793D02*
X102713949Y-114359888D01*
X102713949Y-114359888D02*
X102761568Y-114436079D01*
X102761568Y-114436079D02*
X102761568Y-114626555D01*
X102761568Y-114626555D02*
X102713949Y-114702745D01*
X102713949Y-114702745D02*
X102666329Y-114740841D01*
X113335820Y-120131790D02*
X113335820Y-119979409D01*
X113335820Y-119979409D02*
X113288201Y-119903219D01*
X113288201Y-119903219D02*
X113240581Y-119865123D01*
X113240581Y-119865123D02*
X113097724Y-119788933D01*
X113097724Y-119788933D02*
X112907248Y-119750838D01*
X112907248Y-119750838D02*
X112526296Y-119750838D01*
X112526296Y-119750838D02*
X112431058Y-119788933D01*
X112431058Y-119788933D02*
X112383439Y-119827028D01*
X112383439Y-119827028D02*
X112335820Y-119903219D01*
X112335820Y-119903219D02*
X112335820Y-120055600D01*
X112335820Y-120055600D02*
X112383439Y-120131790D01*
X112383439Y-120131790D02*
X112431058Y-120169885D01*
X112431058Y-120169885D02*
X112526296Y-120207981D01*
X112526296Y-120207981D02*
X112764391Y-120207981D01*
X112764391Y-120207981D02*
X112859629Y-120169885D01*
X112859629Y-120169885D02*
X112907248Y-120131790D01*
X112907248Y-120131790D02*
X112954867Y-120055600D01*
X112954867Y-120055600D02*
X112954867Y-119903219D01*
X112954867Y-119903219D02*
X112907248Y-119827028D01*
X112907248Y-119827028D02*
X112859629Y-119788933D01*
X112859629Y-119788933D02*
X112764391Y-119750838D01*
X91572744Y-135167438D02*
X91496554Y-135119819D01*
X91496554Y-135119819D02*
X91382268Y-135119819D01*
X91382268Y-135119819D02*
X91267982Y-135167438D01*
X91267982Y-135167438D02*
X91191792Y-135262676D01*
X91191792Y-135262676D02*
X91153697Y-135357914D01*
X91153697Y-135357914D02*
X91115601Y-135548390D01*
X91115601Y-135548390D02*
X91115601Y-135691247D01*
X91115601Y-135691247D02*
X91153697Y-135881723D01*
X91153697Y-135881723D02*
X91191792Y-135976961D01*
X91191792Y-135976961D02*
X91267982Y-136072200D01*
X91267982Y-136072200D02*
X91382268Y-136119819D01*
X91382268Y-136119819D02*
X91458459Y-136119819D01*
X91458459Y-136119819D02*
X91572744Y-136072200D01*
X91572744Y-136072200D02*
X91610840Y-136024580D01*
X91610840Y-136024580D02*
X91610840Y-135691247D01*
X91610840Y-135691247D02*
X91458459Y-135691247D01*
X91953697Y-136119819D02*
X91953697Y-135119819D01*
X91953697Y-135119819D02*
X92410840Y-136119819D01*
X92410840Y-136119819D02*
X92410840Y-135119819D01*
X92791792Y-136119819D02*
X92791792Y-135119819D01*
X92791792Y-135119819D02*
X92982268Y-135119819D01*
X92982268Y-135119819D02*
X93096554Y-135167438D01*
X93096554Y-135167438D02*
X93172744Y-135262676D01*
X93172744Y-135262676D02*
X93210839Y-135357914D01*
X93210839Y-135357914D02*
X93248935Y-135548390D01*
X93248935Y-135548390D02*
X93248935Y-135691247D01*
X93248935Y-135691247D02*
X93210839Y-135881723D01*
X93210839Y-135881723D02*
X93172744Y-135976961D01*
X93172744Y-135976961D02*
X93096554Y-136072200D01*
X93096554Y-136072200D02*
X92982268Y-136119819D01*
X92982268Y-136119819D02*
X92791792Y-136119819D01*
X107237029Y-136119819D02*
X106779886Y-136119819D01*
X107008458Y-136119819D02*
X107008458Y-135119819D01*
X107008458Y-135119819D02*
X106932267Y-135262676D01*
X106932267Y-135262676D02*
X106856077Y-135357914D01*
X106856077Y-135357914D02*
X106779886Y-135405533D01*
X107960839Y-135119819D02*
X107579887Y-135119819D01*
X107579887Y-135119819D02*
X107541791Y-135596009D01*
X107541791Y-135596009D02*
X107579887Y-135548390D01*
X107579887Y-135548390D02*
X107656077Y-135500771D01*
X107656077Y-135500771D02*
X107846553Y-135500771D01*
X107846553Y-135500771D02*
X107922744Y-135548390D01*
X107922744Y-135548390D02*
X107960839Y-135596009D01*
X107960839Y-135596009D02*
X107998934Y-135691247D01*
X107998934Y-135691247D02*
X107998934Y-135929342D01*
X107998934Y-135929342D02*
X107960839Y-136024580D01*
X107960839Y-136024580D02*
X107922744Y-136072200D01*
X107922744Y-136072200D02*
X107846553Y-136119819D01*
X107846553Y-136119819D02*
X107656077Y-136119819D01*
X107656077Y-136119819D02*
X107579887Y-136072200D01*
X107579887Y-136072200D02*
X107541791Y-136024580D01*
X104301569Y-114359886D02*
X104301569Y-114512267D01*
X104301569Y-114512267D02*
X104349188Y-114588458D01*
X104349188Y-114588458D02*
X104396807Y-114626553D01*
X104396807Y-114626553D02*
X104539664Y-114702743D01*
X104539664Y-114702743D02*
X104730140Y-114740839D01*
X104730140Y-114740839D02*
X105111092Y-114740839D01*
X105111092Y-114740839D02*
X105206330Y-114702743D01*
X105206330Y-114702743D02*
X105253950Y-114664648D01*
X105253950Y-114664648D02*
X105301569Y-114588458D01*
X105301569Y-114588458D02*
X105301569Y-114436077D01*
X105301569Y-114436077D02*
X105253950Y-114359886D01*
X105253950Y-114359886D02*
X105206330Y-114321791D01*
X105206330Y-114321791D02*
X105111092Y-114283696D01*
X105111092Y-114283696D02*
X104872997Y-114283696D01*
X104872997Y-114283696D02*
X104777759Y-114321791D01*
X104777759Y-114321791D02*
X104730140Y-114359886D01*
X104730140Y-114359886D02*
X104682521Y-114436077D01*
X104682521Y-114436077D02*
X104682521Y-114588458D01*
X104682521Y-114588458D02*
X104730140Y-114664648D01*
X104730140Y-114664648D02*
X104777759Y-114702743D01*
X104777759Y-114702743D02*
X104872997Y-114740839D01*
X94236806Y-114740841D02*
X94189187Y-114702745D01*
X94189187Y-114702745D02*
X94141568Y-114626555D01*
X94141568Y-114626555D02*
X94141568Y-114436079D01*
X94141568Y-114436079D02*
X94189187Y-114359888D01*
X94189187Y-114359888D02*
X94236806Y-114321793D01*
X94236806Y-114321793D02*
X94332044Y-114283698D01*
X94332044Y-114283698D02*
X94427282Y-114283698D01*
X94427282Y-114283698D02*
X94570139Y-114321793D01*
X94570139Y-114321793D02*
X95141568Y-114778936D01*
X95141568Y-114778936D02*
X95141568Y-114283698D01*
X99554902Y-114359886D02*
X100221569Y-114359886D01*
X99173950Y-114550362D02*
X99888235Y-114740839D01*
X99888235Y-114740839D02*
X99888235Y-114245600D01*
X113335819Y-125211793D02*
X113335819Y-125668936D01*
X113335819Y-125440364D02*
X112335819Y-125440364D01*
X112335819Y-125440364D02*
X112478676Y-125516555D01*
X112478676Y-125516555D02*
X112573914Y-125592745D01*
X112573914Y-125592745D02*
X112621533Y-125668936D01*
X113335819Y-124449888D02*
X113335819Y-124907031D01*
X113335819Y-124678459D02*
X112335819Y-124678459D01*
X112335819Y-124678459D02*
X112478676Y-124754650D01*
X112478676Y-124754650D02*
X112573914Y-124830840D01*
X112573914Y-124830840D02*
X112621533Y-124907031D01*
X104097982Y-135215057D02*
X104136078Y-135167438D01*
X104136078Y-135167438D02*
X104212268Y-135119819D01*
X104212268Y-135119819D02*
X104402744Y-135119819D01*
X104402744Y-135119819D02*
X104478935Y-135167438D01*
X104478935Y-135167438D02*
X104517030Y-135215057D01*
X104517030Y-135215057D02*
X104555125Y-135310295D01*
X104555125Y-135310295D02*
X104555125Y-135405533D01*
X104555125Y-135405533D02*
X104517030Y-135548390D01*
X104517030Y-135548390D02*
X104059887Y-136119819D01*
X104059887Y-136119819D02*
X104555125Y-136119819D01*
X105240840Y-135119819D02*
X105088459Y-135119819D01*
X105088459Y-135119819D02*
X105012268Y-135167438D01*
X105012268Y-135167438D02*
X104974173Y-135215057D01*
X104974173Y-135215057D02*
X104897983Y-135357914D01*
X104897983Y-135357914D02*
X104859887Y-135548390D01*
X104859887Y-135548390D02*
X104859887Y-135929342D01*
X104859887Y-135929342D02*
X104897983Y-136024580D01*
X104897983Y-136024580D02*
X104936078Y-136072200D01*
X104936078Y-136072200D02*
X105012268Y-136119819D01*
X105012268Y-136119819D02*
X105164649Y-136119819D01*
X105164649Y-136119819D02*
X105240840Y-136072200D01*
X105240840Y-136072200D02*
X105278935Y-136024580D01*
X105278935Y-136024580D02*
X105317030Y-135929342D01*
X105317030Y-135929342D02*
X105317030Y-135691247D01*
X105317030Y-135691247D02*
X105278935Y-135596009D01*
X105278935Y-135596009D02*
X105240840Y-135548390D01*
X105240840Y-135548390D02*
X105164649Y-135500771D01*
X105164649Y-135500771D02*
X105012268Y-135500771D01*
X105012268Y-135500771D02*
X104936078Y-135548390D01*
X104936078Y-135548390D02*
X104897983Y-135596009D01*
X104897983Y-135596009D02*
X104859887Y-135691247D01*
X113335819Y-127751792D02*
X113335819Y-128208935D01*
X113335819Y-127980363D02*
X112335819Y-127980363D01*
X112335819Y-127980363D02*
X112478676Y-128056554D01*
X112478676Y-128056554D02*
X112573914Y-128132744D01*
X112573914Y-128132744D02*
X112621533Y-128208935D01*
X112431057Y-127447030D02*
X112383438Y-127408934D01*
X112383438Y-127408934D02*
X112335819Y-127332744D01*
X112335819Y-127332744D02*
X112335819Y-127142268D01*
X112335819Y-127142268D02*
X112383438Y-127066077D01*
X112383438Y-127066077D02*
X112431057Y-127027982D01*
X112431057Y-127027982D02*
X112526295Y-126989887D01*
X112526295Y-126989887D02*
X112621533Y-126989887D01*
X112621533Y-126989887D02*
X112764390Y-127027982D01*
X112764390Y-127027982D02*
X113335819Y-127485125D01*
X113335819Y-127485125D02*
X113335819Y-126989887D01*
X113335820Y-130291792D02*
X113335820Y-130748935D01*
X113335820Y-130520363D02*
X112335820Y-130520363D01*
X112335820Y-130520363D02*
X112478677Y-130596554D01*
X112478677Y-130596554D02*
X112573915Y-130672744D01*
X112573915Y-130672744D02*
X112621534Y-130748935D01*
X112335820Y-130025125D02*
X112335820Y-129529887D01*
X112335820Y-129529887D02*
X112716772Y-129796553D01*
X112716772Y-129796553D02*
X112716772Y-129682268D01*
X112716772Y-129682268D02*
X112764391Y-129606077D01*
X112764391Y-129606077D02*
X112812010Y-129567982D01*
X112812010Y-129567982D02*
X112907248Y-129529887D01*
X112907248Y-129529887D02*
X113145343Y-129529887D01*
X113145343Y-129529887D02*
X113240581Y-129567982D01*
X113240581Y-129567982D02*
X113288201Y-129606077D01*
X113288201Y-129606077D02*
X113335820Y-129682268D01*
X113335820Y-129682268D02*
X113335820Y-129910839D01*
X113335820Y-129910839D02*
X113288201Y-129987030D01*
X113288201Y-129987030D02*
X113240581Y-130025125D01*
X109810140Y-114588460D02*
X109762521Y-114664650D01*
X109762521Y-114664650D02*
X109714902Y-114702745D01*
X109714902Y-114702745D02*
X109619664Y-114740841D01*
X109619664Y-114740841D02*
X109572045Y-114740841D01*
X109572045Y-114740841D02*
X109476807Y-114702745D01*
X109476807Y-114702745D02*
X109429188Y-114664650D01*
X109429188Y-114664650D02*
X109381569Y-114588460D01*
X109381569Y-114588460D02*
X109381569Y-114436079D01*
X109381569Y-114436079D02*
X109429188Y-114359888D01*
X109429188Y-114359888D02*
X109476807Y-114321793D01*
X109476807Y-114321793D02*
X109572045Y-114283698D01*
X109572045Y-114283698D02*
X109619664Y-114283698D01*
X109619664Y-114283698D02*
X109714902Y-114321793D01*
X109714902Y-114321793D02*
X109762521Y-114359888D01*
X109762521Y-114359888D02*
X109810140Y-114436079D01*
X109810140Y-114436079D02*
X109810140Y-114588460D01*
X109810140Y-114588460D02*
X109857759Y-114664650D01*
X109857759Y-114664650D02*
X109905378Y-114702745D01*
X109905378Y-114702745D02*
X110000616Y-114740841D01*
X110000616Y-114740841D02*
X110191092Y-114740841D01*
X110191092Y-114740841D02*
X110286330Y-114702745D01*
X110286330Y-114702745D02*
X110333950Y-114664650D01*
X110333950Y-114664650D02*
X110381569Y-114588460D01*
X110381569Y-114588460D02*
X110381569Y-114436079D01*
X110381569Y-114436079D02*
X110333950Y-114359888D01*
X110333950Y-114359888D02*
X110286330Y-114321793D01*
X110286330Y-114321793D02*
X110191092Y-114283698D01*
X110191092Y-114283698D02*
X110000616Y-114283698D01*
X110000616Y-114283698D02*
X109905378Y-114321793D01*
X109905378Y-114321793D02*
X109857759Y-114359888D01*
X109857759Y-114359888D02*
X109810140Y-114436079D01*
X96681569Y-114778935D02*
X96681569Y-114283697D01*
X96681569Y-114283697D02*
X97062521Y-114550363D01*
X97062521Y-114550363D02*
X97062521Y-114436078D01*
X97062521Y-114436078D02*
X97110140Y-114359887D01*
X97110140Y-114359887D02*
X97157759Y-114321792D01*
X97157759Y-114321792D02*
X97252997Y-114283697D01*
X97252997Y-114283697D02*
X97491092Y-114283697D01*
X97491092Y-114283697D02*
X97586330Y-114321792D01*
X97586330Y-114321792D02*
X97633950Y-114359887D01*
X97633950Y-114359887D02*
X97681569Y-114436078D01*
X97681569Y-114436078D02*
X97681569Y-114664649D01*
X97681569Y-114664649D02*
X97633950Y-114740840D01*
X97633950Y-114740840D02*
X97586330Y-114778935D01*
X123652200Y-102809523D02*
X123699819Y-102666666D01*
X123699819Y-102666666D02*
X123699819Y-102428571D01*
X123699819Y-102428571D02*
X123652200Y-102333333D01*
X123652200Y-102333333D02*
X123604580Y-102285714D01*
X123604580Y-102285714D02*
X123509342Y-102238095D01*
X123509342Y-102238095D02*
X123414104Y-102238095D01*
X123414104Y-102238095D02*
X123318866Y-102285714D01*
X123318866Y-102285714D02*
X123271247Y-102333333D01*
X123271247Y-102333333D02*
X123223628Y-102428571D01*
X123223628Y-102428571D02*
X123176009Y-102619047D01*
X123176009Y-102619047D02*
X123128390Y-102714285D01*
X123128390Y-102714285D02*
X123080771Y-102761904D01*
X123080771Y-102761904D02*
X122985533Y-102809523D01*
X122985533Y-102809523D02*
X122890295Y-102809523D01*
X122890295Y-102809523D02*
X122795057Y-102761904D01*
X122795057Y-102761904D02*
X122747438Y-102714285D01*
X122747438Y-102714285D02*
X122699819Y-102619047D01*
X122699819Y-102619047D02*
X122699819Y-102380952D01*
X122699819Y-102380952D02*
X122747438Y-102238095D01*
X122699819Y-101904761D02*
X123699819Y-101666666D01*
X123699819Y-101666666D02*
X122985533Y-101476190D01*
X122985533Y-101476190D02*
X123699819Y-101285714D01*
X123699819Y-101285714D02*
X122699819Y-101047619D01*
X123699819Y-100142857D02*
X123699819Y-100714285D01*
X123699819Y-100428571D02*
X122699819Y-100428571D01*
X122699819Y-100428571D02*
X122842676Y-100523809D01*
X122842676Y-100523809D02*
X122937914Y-100619047D01*
X122937914Y-100619047D02*
X122985533Y-100714285D01*
X123033152Y-99285714D02*
X123699819Y-99285714D01*
X122652200Y-99523809D02*
X123366485Y-99761904D01*
X123366485Y-99761904D02*
X123366485Y-99142857D01*
X102162204Y-62333340D02*
X102209823Y-62190483D01*
X102209823Y-62190483D02*
X102209823Y-61952388D01*
X102209823Y-61952388D02*
X102162204Y-61857150D01*
X102162204Y-61857150D02*
X102114584Y-61809531D01*
X102114584Y-61809531D02*
X102019346Y-61761912D01*
X102019346Y-61761912D02*
X101924108Y-61761912D01*
X101924108Y-61761912D02*
X101828870Y-61809531D01*
X101828870Y-61809531D02*
X101781251Y-61857150D01*
X101781251Y-61857150D02*
X101733632Y-61952388D01*
X101733632Y-61952388D02*
X101686013Y-62142864D01*
X101686013Y-62142864D02*
X101638394Y-62238102D01*
X101638394Y-62238102D02*
X101590775Y-62285721D01*
X101590775Y-62285721D02*
X101495537Y-62333340D01*
X101495537Y-62333340D02*
X101400299Y-62333340D01*
X101400299Y-62333340D02*
X101305061Y-62285721D01*
X101305061Y-62285721D02*
X101257442Y-62238102D01*
X101257442Y-62238102D02*
X101209823Y-62142864D01*
X101209823Y-62142864D02*
X101209823Y-61904769D01*
X101209823Y-61904769D02*
X101257442Y-61761912D01*
X101209823Y-61428578D02*
X102209823Y-61190483D01*
X102209823Y-61190483D02*
X101495537Y-61000007D01*
X101495537Y-61000007D02*
X102209823Y-60809531D01*
X102209823Y-60809531D02*
X101209823Y-60571436D01*
X101305061Y-60238102D02*
X101257442Y-60190483D01*
X101257442Y-60190483D02*
X101209823Y-60095245D01*
X101209823Y-60095245D02*
X101209823Y-59857150D01*
X101209823Y-59857150D02*
X101257442Y-59761912D01*
X101257442Y-59761912D02*
X101305061Y-59714293D01*
X101305061Y-59714293D02*
X101400299Y-59666674D01*
X101400299Y-59666674D02*
X101495537Y-59666674D01*
X101495537Y-59666674D02*
X101638394Y-59714293D01*
X101638394Y-59714293D02*
X102209823Y-60285721D01*
X102209823Y-60285721D02*
X102209823Y-59666674D01*
X121162204Y-97809531D02*
X121209823Y-97666674D01*
X121209823Y-97666674D02*
X121209823Y-97428579D01*
X121209823Y-97428579D02*
X121162204Y-97333341D01*
X121162204Y-97333341D02*
X121114584Y-97285722D01*
X121114584Y-97285722D02*
X121019346Y-97238103D01*
X121019346Y-97238103D02*
X120924108Y-97238103D01*
X120924108Y-97238103D02*
X120828870Y-97285722D01*
X120828870Y-97285722D02*
X120781251Y-97333341D01*
X120781251Y-97333341D02*
X120733632Y-97428579D01*
X120733632Y-97428579D02*
X120686013Y-97619055D01*
X120686013Y-97619055D02*
X120638394Y-97714293D01*
X120638394Y-97714293D02*
X120590775Y-97761912D01*
X120590775Y-97761912D02*
X120495537Y-97809531D01*
X120495537Y-97809531D02*
X120400299Y-97809531D01*
X120400299Y-97809531D02*
X120305061Y-97761912D01*
X120305061Y-97761912D02*
X120257442Y-97714293D01*
X120257442Y-97714293D02*
X120209823Y-97619055D01*
X120209823Y-97619055D02*
X120209823Y-97380960D01*
X120209823Y-97380960D02*
X120257442Y-97238103D01*
X120209823Y-96904769D02*
X121209823Y-96666674D01*
X121209823Y-96666674D02*
X120495537Y-96476198D01*
X120495537Y-96476198D02*
X121209823Y-96285722D01*
X121209823Y-96285722D02*
X120209823Y-96047627D01*
X121209823Y-95142865D02*
X121209823Y-95714293D01*
X121209823Y-95428579D02*
X120209823Y-95428579D01*
X120209823Y-95428579D02*
X120352680Y-95523817D01*
X120352680Y-95523817D02*
X120447918Y-95619055D01*
X120447918Y-95619055D02*
X120495537Y-95714293D01*
X120209823Y-94809531D02*
X120209823Y-94190484D01*
X120209823Y-94190484D02*
X120590775Y-94523817D01*
X120590775Y-94523817D02*
X120590775Y-94380960D01*
X120590775Y-94380960D02*
X120638394Y-94285722D01*
X120638394Y-94285722D02*
X120686013Y-94238103D01*
X120686013Y-94238103D02*
X120781251Y-94190484D01*
X120781251Y-94190484D02*
X121019346Y-94190484D01*
X121019346Y-94190484D02*
X121114584Y-94238103D01*
X121114584Y-94238103D02*
X121162204Y-94285722D01*
X121162204Y-94285722D02*
X121209823Y-94380960D01*
X121209823Y-94380960D02*
X121209823Y-94666674D01*
X121209823Y-94666674D02*
X121162204Y-94761912D01*
X121162204Y-94761912D02*
X121114584Y-94809531D01*
X133652200Y-130809523D02*
X133699819Y-130666666D01*
X133699819Y-130666666D02*
X133699819Y-130428571D01*
X133699819Y-130428571D02*
X133652200Y-130333333D01*
X133652200Y-130333333D02*
X133604580Y-130285714D01*
X133604580Y-130285714D02*
X133509342Y-130238095D01*
X133509342Y-130238095D02*
X133414104Y-130238095D01*
X133414104Y-130238095D02*
X133318866Y-130285714D01*
X133318866Y-130285714D02*
X133271247Y-130333333D01*
X133271247Y-130333333D02*
X133223628Y-130428571D01*
X133223628Y-130428571D02*
X133176009Y-130619047D01*
X133176009Y-130619047D02*
X133128390Y-130714285D01*
X133128390Y-130714285D02*
X133080771Y-130761904D01*
X133080771Y-130761904D02*
X132985533Y-130809523D01*
X132985533Y-130809523D02*
X132890295Y-130809523D01*
X132890295Y-130809523D02*
X132795057Y-130761904D01*
X132795057Y-130761904D02*
X132747438Y-130714285D01*
X132747438Y-130714285D02*
X132699819Y-130619047D01*
X132699819Y-130619047D02*
X132699819Y-130380952D01*
X132699819Y-130380952D02*
X132747438Y-130238095D01*
X132699819Y-129904761D02*
X133699819Y-129666666D01*
X133699819Y-129666666D02*
X132985533Y-129476190D01*
X132985533Y-129476190D02*
X133699819Y-129285714D01*
X133699819Y-129285714D02*
X132699819Y-129047619D01*
X133699819Y-128142857D02*
X133699819Y-128714285D01*
X133699819Y-128428571D02*
X132699819Y-128428571D01*
X132699819Y-128428571D02*
X132842676Y-128523809D01*
X132842676Y-128523809D02*
X132937914Y-128619047D01*
X132937914Y-128619047D02*
X132985533Y-128714285D01*
X132699819Y-127809523D02*
X132699819Y-127142857D01*
X132699819Y-127142857D02*
X133699819Y-127571428D01*
X102162204Y-81333340D02*
X102209823Y-81190483D01*
X102209823Y-81190483D02*
X102209823Y-80952388D01*
X102209823Y-80952388D02*
X102162204Y-80857150D01*
X102162204Y-80857150D02*
X102114584Y-80809531D01*
X102114584Y-80809531D02*
X102019346Y-80761912D01*
X102019346Y-80761912D02*
X101924108Y-80761912D01*
X101924108Y-80761912D02*
X101828870Y-80809531D01*
X101828870Y-80809531D02*
X101781251Y-80857150D01*
X101781251Y-80857150D02*
X101733632Y-80952388D01*
X101733632Y-80952388D02*
X101686013Y-81142864D01*
X101686013Y-81142864D02*
X101638394Y-81238102D01*
X101638394Y-81238102D02*
X101590775Y-81285721D01*
X101590775Y-81285721D02*
X101495537Y-81333340D01*
X101495537Y-81333340D02*
X101400299Y-81333340D01*
X101400299Y-81333340D02*
X101305061Y-81285721D01*
X101305061Y-81285721D02*
X101257442Y-81238102D01*
X101257442Y-81238102D02*
X101209823Y-81142864D01*
X101209823Y-81142864D02*
X101209823Y-80904769D01*
X101209823Y-80904769D02*
X101257442Y-80761912D01*
X101209823Y-80428578D02*
X102209823Y-80190483D01*
X102209823Y-80190483D02*
X101495537Y-80000007D01*
X101495537Y-80000007D02*
X102209823Y-79809531D01*
X102209823Y-79809531D02*
X101209823Y-79571436D01*
X101209823Y-79285721D02*
X101209823Y-78619055D01*
X101209823Y-78619055D02*
X102209823Y-79047626D01*
X102162204Y-100809531D02*
X102209823Y-100666674D01*
X102209823Y-100666674D02*
X102209823Y-100428579D01*
X102209823Y-100428579D02*
X102162204Y-100333341D01*
X102162204Y-100333341D02*
X102114584Y-100285722D01*
X102114584Y-100285722D02*
X102019346Y-100238103D01*
X102019346Y-100238103D02*
X101924108Y-100238103D01*
X101924108Y-100238103D02*
X101828870Y-100285722D01*
X101828870Y-100285722D02*
X101781251Y-100333341D01*
X101781251Y-100333341D02*
X101733632Y-100428579D01*
X101733632Y-100428579D02*
X101686013Y-100619055D01*
X101686013Y-100619055D02*
X101638394Y-100714293D01*
X101638394Y-100714293D02*
X101590775Y-100761912D01*
X101590775Y-100761912D02*
X101495537Y-100809531D01*
X101495537Y-100809531D02*
X101400299Y-100809531D01*
X101400299Y-100809531D02*
X101305061Y-100761912D01*
X101305061Y-100761912D02*
X101257442Y-100714293D01*
X101257442Y-100714293D02*
X101209823Y-100619055D01*
X101209823Y-100619055D02*
X101209823Y-100380960D01*
X101209823Y-100380960D02*
X101257442Y-100238103D01*
X101209823Y-99904769D02*
X102209823Y-99666674D01*
X102209823Y-99666674D02*
X101495537Y-99476198D01*
X101495537Y-99476198D02*
X102209823Y-99285722D01*
X102209823Y-99285722D02*
X101209823Y-99047627D01*
X102209823Y-98142865D02*
X102209823Y-98714293D01*
X102209823Y-98428579D02*
X101209823Y-98428579D01*
X101209823Y-98428579D02*
X101352680Y-98523817D01*
X101352680Y-98523817D02*
X101447918Y-98619055D01*
X101447918Y-98619055D02*
X101495537Y-98714293D01*
X101305061Y-97761912D02*
X101257442Y-97714293D01*
X101257442Y-97714293D02*
X101209823Y-97619055D01*
X101209823Y-97619055D02*
X101209823Y-97380960D01*
X101209823Y-97380960D02*
X101257442Y-97285722D01*
X101257442Y-97285722D02*
X101305061Y-97238103D01*
X101305061Y-97238103D02*
X101400299Y-97190484D01*
X101400299Y-97190484D02*
X101495537Y-97190484D01*
X101495537Y-97190484D02*
X101638394Y-97238103D01*
X101638394Y-97238103D02*
X102209823Y-97809531D01*
X102209823Y-97809531D02*
X102209823Y-97190484D01*
X121162204Y-78333340D02*
X121209823Y-78190483D01*
X121209823Y-78190483D02*
X121209823Y-77952388D01*
X121209823Y-77952388D02*
X121162204Y-77857150D01*
X121162204Y-77857150D02*
X121114584Y-77809531D01*
X121114584Y-77809531D02*
X121019346Y-77761912D01*
X121019346Y-77761912D02*
X120924108Y-77761912D01*
X120924108Y-77761912D02*
X120828870Y-77809531D01*
X120828870Y-77809531D02*
X120781251Y-77857150D01*
X120781251Y-77857150D02*
X120733632Y-77952388D01*
X120733632Y-77952388D02*
X120686013Y-78142864D01*
X120686013Y-78142864D02*
X120638394Y-78238102D01*
X120638394Y-78238102D02*
X120590775Y-78285721D01*
X120590775Y-78285721D02*
X120495537Y-78333340D01*
X120495537Y-78333340D02*
X120400299Y-78333340D01*
X120400299Y-78333340D02*
X120305061Y-78285721D01*
X120305061Y-78285721D02*
X120257442Y-78238102D01*
X120257442Y-78238102D02*
X120209823Y-78142864D01*
X120209823Y-78142864D02*
X120209823Y-77904769D01*
X120209823Y-77904769D02*
X120257442Y-77761912D01*
X120209823Y-77428578D02*
X121209823Y-77190483D01*
X121209823Y-77190483D02*
X120495537Y-77000007D01*
X120495537Y-77000007D02*
X121209823Y-76809531D01*
X121209823Y-76809531D02*
X120209823Y-76571436D01*
X120638394Y-76047626D02*
X120590775Y-76142864D01*
X120590775Y-76142864D02*
X120543156Y-76190483D01*
X120543156Y-76190483D02*
X120447918Y-76238102D01*
X120447918Y-76238102D02*
X120400299Y-76238102D01*
X120400299Y-76238102D02*
X120305061Y-76190483D01*
X120305061Y-76190483D02*
X120257442Y-76142864D01*
X120257442Y-76142864D02*
X120209823Y-76047626D01*
X120209823Y-76047626D02*
X120209823Y-75857150D01*
X120209823Y-75857150D02*
X120257442Y-75761912D01*
X120257442Y-75761912D02*
X120305061Y-75714293D01*
X120305061Y-75714293D02*
X120400299Y-75666674D01*
X120400299Y-75666674D02*
X120447918Y-75666674D01*
X120447918Y-75666674D02*
X120543156Y-75714293D01*
X120543156Y-75714293D02*
X120590775Y-75761912D01*
X120590775Y-75761912D02*
X120638394Y-75857150D01*
X120638394Y-75857150D02*
X120638394Y-76047626D01*
X120638394Y-76047626D02*
X120686013Y-76142864D01*
X120686013Y-76142864D02*
X120733632Y-76190483D01*
X120733632Y-76190483D02*
X120828870Y-76238102D01*
X120828870Y-76238102D02*
X121019346Y-76238102D01*
X121019346Y-76238102D02*
X121114584Y-76190483D01*
X121114584Y-76190483D02*
X121162204Y-76142864D01*
X121162204Y-76142864D02*
X121209823Y-76047626D01*
X121209823Y-76047626D02*
X121209823Y-75857150D01*
X121209823Y-75857150D02*
X121162204Y-75761912D01*
X121162204Y-75761912D02*
X121114584Y-75714293D01*
X121114584Y-75714293D02*
X121019346Y-75666674D01*
X121019346Y-75666674D02*
X120828870Y-75666674D01*
X120828870Y-75666674D02*
X120733632Y-75714293D01*
X120733632Y-75714293D02*
X120686013Y-75761912D01*
X120686013Y-75761912D02*
X120638394Y-75857150D01*
X83162198Y-71333331D02*
X83209817Y-71190474D01*
X83209817Y-71190474D02*
X83209817Y-70952379D01*
X83209817Y-70952379D02*
X83162198Y-70857141D01*
X83162198Y-70857141D02*
X83114578Y-70809522D01*
X83114578Y-70809522D02*
X83019340Y-70761903D01*
X83019340Y-70761903D02*
X82924102Y-70761903D01*
X82924102Y-70761903D02*
X82828864Y-70809522D01*
X82828864Y-70809522D02*
X82781245Y-70857141D01*
X82781245Y-70857141D02*
X82733626Y-70952379D01*
X82733626Y-70952379D02*
X82686007Y-71142855D01*
X82686007Y-71142855D02*
X82638388Y-71238093D01*
X82638388Y-71238093D02*
X82590769Y-71285712D01*
X82590769Y-71285712D02*
X82495531Y-71333331D01*
X82495531Y-71333331D02*
X82400293Y-71333331D01*
X82400293Y-71333331D02*
X82305055Y-71285712D01*
X82305055Y-71285712D02*
X82257436Y-71238093D01*
X82257436Y-71238093D02*
X82209817Y-71142855D01*
X82209817Y-71142855D02*
X82209817Y-70904760D01*
X82209817Y-70904760D02*
X82257436Y-70761903D01*
X82209817Y-70428569D02*
X83209817Y-70190474D01*
X83209817Y-70190474D02*
X82495531Y-69999998D01*
X82495531Y-69999998D02*
X83209817Y-69809522D01*
X83209817Y-69809522D02*
X82209817Y-69571427D01*
X83209817Y-68666665D02*
X83209817Y-69238093D01*
X83209817Y-68952379D02*
X82209817Y-68952379D01*
X82209817Y-68952379D02*
X82352674Y-69047617D01*
X82352674Y-69047617D02*
X82447912Y-69142855D01*
X82447912Y-69142855D02*
X82495531Y-69238093D01*
X121162204Y-59333340D02*
X121209823Y-59190483D01*
X121209823Y-59190483D02*
X121209823Y-58952388D01*
X121209823Y-58952388D02*
X121162204Y-58857150D01*
X121162204Y-58857150D02*
X121114584Y-58809531D01*
X121114584Y-58809531D02*
X121019346Y-58761912D01*
X121019346Y-58761912D02*
X120924108Y-58761912D01*
X120924108Y-58761912D02*
X120828870Y-58809531D01*
X120828870Y-58809531D02*
X120781251Y-58857150D01*
X120781251Y-58857150D02*
X120733632Y-58952388D01*
X120733632Y-58952388D02*
X120686013Y-59142864D01*
X120686013Y-59142864D02*
X120638394Y-59238102D01*
X120638394Y-59238102D02*
X120590775Y-59285721D01*
X120590775Y-59285721D02*
X120495537Y-59333340D01*
X120495537Y-59333340D02*
X120400299Y-59333340D01*
X120400299Y-59333340D02*
X120305061Y-59285721D01*
X120305061Y-59285721D02*
X120257442Y-59238102D01*
X120257442Y-59238102D02*
X120209823Y-59142864D01*
X120209823Y-59142864D02*
X120209823Y-58904769D01*
X120209823Y-58904769D02*
X120257442Y-58761912D01*
X120209823Y-58428578D02*
X121209823Y-58190483D01*
X121209823Y-58190483D02*
X120495537Y-58000007D01*
X120495537Y-58000007D02*
X121209823Y-57809531D01*
X121209823Y-57809531D02*
X120209823Y-57571436D01*
X120209823Y-57285721D02*
X120209823Y-56666674D01*
X120209823Y-56666674D02*
X120590775Y-57000007D01*
X120590775Y-57000007D02*
X120590775Y-56857150D01*
X120590775Y-56857150D02*
X120638394Y-56761912D01*
X120638394Y-56761912D02*
X120686013Y-56714293D01*
X120686013Y-56714293D02*
X120781251Y-56666674D01*
X120781251Y-56666674D02*
X121019346Y-56666674D01*
X121019346Y-56666674D02*
X121114584Y-56714293D01*
X121114584Y-56714293D02*
X121162204Y-56761912D01*
X121162204Y-56761912D02*
X121209823Y-56857150D01*
X121209823Y-56857150D02*
X121209823Y-57142864D01*
X121209823Y-57142864D02*
X121162204Y-57238102D01*
X121162204Y-57238102D02*
X121114584Y-57285721D01*
X142652200Y-85809523D02*
X142699819Y-85666666D01*
X142699819Y-85666666D02*
X142699819Y-85428571D01*
X142699819Y-85428571D02*
X142652200Y-85333333D01*
X142652200Y-85333333D02*
X142604580Y-85285714D01*
X142604580Y-85285714D02*
X142509342Y-85238095D01*
X142509342Y-85238095D02*
X142414104Y-85238095D01*
X142414104Y-85238095D02*
X142318866Y-85285714D01*
X142318866Y-85285714D02*
X142271247Y-85333333D01*
X142271247Y-85333333D02*
X142223628Y-85428571D01*
X142223628Y-85428571D02*
X142176009Y-85619047D01*
X142176009Y-85619047D02*
X142128390Y-85714285D01*
X142128390Y-85714285D02*
X142080771Y-85761904D01*
X142080771Y-85761904D02*
X141985533Y-85809523D01*
X141985533Y-85809523D02*
X141890295Y-85809523D01*
X141890295Y-85809523D02*
X141795057Y-85761904D01*
X141795057Y-85761904D02*
X141747438Y-85714285D01*
X141747438Y-85714285D02*
X141699819Y-85619047D01*
X141699819Y-85619047D02*
X141699819Y-85380952D01*
X141699819Y-85380952D02*
X141747438Y-85238095D01*
X141699819Y-84904761D02*
X142699819Y-84666666D01*
X142699819Y-84666666D02*
X141985533Y-84476190D01*
X141985533Y-84476190D02*
X142699819Y-84285714D01*
X142699819Y-84285714D02*
X141699819Y-84047619D01*
X142699819Y-83142857D02*
X142699819Y-83714285D01*
X142699819Y-83428571D02*
X141699819Y-83428571D01*
X141699819Y-83428571D02*
X141842676Y-83523809D01*
X141842676Y-83523809D02*
X141937914Y-83619047D01*
X141937914Y-83619047D02*
X141985533Y-83714285D01*
X141699819Y-82523809D02*
X141699819Y-82428571D01*
X141699819Y-82428571D02*
X141747438Y-82333333D01*
X141747438Y-82333333D02*
X141795057Y-82285714D01*
X141795057Y-82285714D02*
X141890295Y-82238095D01*
X141890295Y-82238095D02*
X142080771Y-82190476D01*
X142080771Y-82190476D02*
X142318866Y-82190476D01*
X142318866Y-82190476D02*
X142509342Y-82238095D01*
X142509342Y-82238095D02*
X142604580Y-82285714D01*
X142604580Y-82285714D02*
X142652200Y-82333333D01*
X142652200Y-82333333D02*
X142699819Y-82428571D01*
X142699819Y-82428571D02*
X142699819Y-82523809D01*
X142699819Y-82523809D02*
X142652200Y-82619047D01*
X142652200Y-82619047D02*
X142604580Y-82666666D01*
X142604580Y-82666666D02*
X142509342Y-82714285D01*
X142509342Y-82714285D02*
X142318866Y-82761904D01*
X142318866Y-82761904D02*
X142080771Y-82761904D01*
X142080771Y-82761904D02*
X141890295Y-82714285D01*
X141890295Y-82714285D02*
X141795057Y-82666666D01*
X141795057Y-82666666D02*
X141747438Y-82619047D01*
X141747438Y-82619047D02*
X141699819Y-82523809D01*
%TO.C,SW16*%
X115499999Y-120000000D02*
X116500001Y-120000000D01*
X115500000Y-134000001D02*
X115500000Y-132999999D01*
X115500001Y-121000000D02*
X115499999Y-120000000D01*
X115515000Y-123190000D02*
X115515001Y-132080000D01*
X115515001Y-132080000D02*
X115896001Y-132080001D01*
X115896000Y-134000000D02*
X115500000Y-134000001D01*
X118055001Y-120650001D02*
X118436001Y-120650000D01*
X118944000Y-132080000D02*
X119324999Y-132080000D01*
X119960001Y-129286000D02*
X119959999Y-126999999D01*
X121864999Y-121031001D02*
X121865000Y-120650000D01*
X121865000Y-120650000D02*
X121483999Y-120649999D01*
X121865001Y-124540655D02*
X121864999Y-122808999D01*
X128500000Y-120000001D02*
X129500000Y-119999999D01*
X129499999Y-133000000D02*
X129500001Y-134000000D01*
X129500000Y-119999999D02*
X129500000Y-121000001D01*
X129500001Y-134000000D02*
X128499999Y-134000000D01*
X115515000Y-123190000D02*
G75*
G02*
X118055001Y-120650000I2540000J0D01*
G01*
X119959999Y-126999999D02*
G75*
G02*
X121864999Y-124540657I2540003J-5D01*
G01*
%TO.C,D9*%
X122000000Y-112750000D02*
X122500001Y-113650000D01*
X122500001Y-113650000D02*
X123000000Y-112750000D01*
X123000000Y-112750000D02*
X122000000Y-112750000D01*
X123000000Y-113750000D02*
X122000000Y-113750000D01*
D14*
G36*
X123299699Y-116448438D02*
G01*
X121699450Y-116448440D01*
X121699450Y-115885870D01*
X123299699Y-115885868D01*
X123299699Y-116448438D01*
G37*
G36*
X123300709Y-116451337D02*
G01*
X121848567Y-116451338D01*
X121699708Y-116451338D01*
X121699707Y-110199780D01*
X121848568Y-110199780D01*
X121848569Y-116303025D01*
X123149231Y-116303025D01*
X123149232Y-110199781D01*
X121848568Y-110199780D01*
X121699707Y-110199780D01*
X121699707Y-110051471D01*
X123300708Y-110051470D01*
X123300709Y-116451337D01*
G37*
D13*
%TO.C,SW9*%
X124499999Y-75000000D02*
X125500001Y-75000000D01*
X124500000Y-89000001D02*
X124500000Y-87999999D01*
X124500001Y-76000000D02*
X124499999Y-75000000D01*
X124515000Y-78190000D02*
X124515001Y-87080000D01*
X124515001Y-87080000D02*
X124896001Y-87080001D01*
X124896000Y-89000000D02*
X124500000Y-89000001D01*
X127055001Y-75650001D02*
X127436001Y-75650000D01*
X127944000Y-87080000D02*
X128324999Y-87080000D01*
X128960001Y-84286000D02*
X128959999Y-81999999D01*
X130864999Y-76031001D02*
X130865000Y-75650000D01*
X130865000Y-75650000D02*
X130483999Y-75649999D01*
X130865001Y-79540655D02*
X130864999Y-77808999D01*
X137500000Y-75000001D02*
X138500000Y-74999999D01*
X138499999Y-88000000D02*
X138500001Y-89000000D01*
X138500000Y-74999999D02*
X138500000Y-76000001D01*
X138500001Y-89000000D02*
X137499999Y-89000000D01*
X124515000Y-78190000D02*
G75*
G02*
X127055001Y-75650000I2540000J0D01*
G01*
X128959999Y-81999999D02*
G75*
G02*
X130864999Y-79540657I2540003J-5D01*
G01*
%TO.C,D7*%
X117000000Y-110750000D02*
X117500001Y-111650000D01*
X117500001Y-111650000D02*
X118000000Y-110750000D01*
X118000000Y-110750000D02*
X117000000Y-110750000D01*
X118000000Y-111750000D02*
X117000000Y-111750000D01*
D14*
G36*
X118299699Y-114448438D02*
G01*
X116699450Y-114448440D01*
X116699450Y-113885870D01*
X118299699Y-113885868D01*
X118299699Y-114448438D01*
G37*
G36*
X118300709Y-114451337D02*
G01*
X116848567Y-114451338D01*
X116699708Y-114451338D01*
X116699707Y-108199780D01*
X116848568Y-108199780D01*
X116848569Y-114303025D01*
X118149231Y-114303025D01*
X118149232Y-108199781D01*
X116848568Y-108199780D01*
X116699707Y-108199780D01*
X116699707Y-108051471D01*
X118300708Y-108051470D01*
X118300709Y-114451337D01*
G37*
D13*
%TO.C,D14*%
X134500000Y-114500000D02*
X135000001Y-115400000D01*
X135000001Y-115400000D02*
X135500000Y-114500000D01*
X135500000Y-114500000D02*
X134500000Y-114500000D01*
X135500000Y-115500000D02*
X134500000Y-115500000D01*
D14*
G36*
X135799699Y-118198438D02*
G01*
X134199450Y-118198440D01*
X134199450Y-117635870D01*
X135799699Y-117635868D01*
X135799699Y-118198438D01*
G37*
G36*
X135800709Y-118201337D02*
G01*
X134348567Y-118201338D01*
X134199708Y-118201338D01*
X134199707Y-111949780D01*
X134348568Y-111949780D01*
X134348569Y-118053025D01*
X135649231Y-118053025D01*
X135649232Y-111949781D01*
X134348568Y-111949780D01*
X134199707Y-111949780D01*
X134199707Y-111801471D01*
X135800708Y-111801470D01*
X135800709Y-118201337D01*
G37*
D13*
%TO.C,D1*%
X102000000Y-108500000D02*
X102500001Y-109400000D01*
X102500001Y-109400000D02*
X103000000Y-108500000D01*
X103000000Y-108500000D02*
X102000000Y-108500000D01*
X103000000Y-109500000D02*
X102000000Y-109500000D01*
D14*
G36*
X103299699Y-112198438D02*
G01*
X101699450Y-112198440D01*
X101699450Y-111635870D01*
X103299699Y-111635868D01*
X103299699Y-112198438D01*
G37*
G36*
X103300709Y-112201337D02*
G01*
X101848567Y-112201338D01*
X101699708Y-112201338D01*
X101699707Y-105949780D01*
X101848568Y-105949780D01*
X101848569Y-112053025D01*
X103149231Y-112053025D01*
X103149232Y-105949781D01*
X101848568Y-105949780D01*
X101699707Y-105949780D01*
X101699707Y-105801471D01*
X103300708Y-105801470D01*
X103300709Y-112201337D01*
G37*
D13*
%TO.C,D17*%
X142000000Y-115000000D02*
X142500001Y-115900000D01*
X142500001Y-115900000D02*
X143000000Y-115000000D01*
X143000000Y-115000000D02*
X142000000Y-115000000D01*
X143000000Y-116000000D02*
X142000000Y-116000000D01*
D14*
G36*
X143299699Y-118698438D02*
G01*
X141699450Y-118698440D01*
X141699450Y-118135870D01*
X143299699Y-118135868D01*
X143299699Y-118698438D01*
G37*
G36*
X143300709Y-118701337D02*
G01*
X141848567Y-118701338D01*
X141699708Y-118701338D01*
X141699707Y-112449780D01*
X141848568Y-112449780D01*
X141848569Y-118553025D01*
X143149231Y-118553025D01*
X143149232Y-112449781D01*
X141848568Y-112449780D01*
X141699707Y-112449780D01*
X141699707Y-112301471D01*
X143300708Y-112301470D01*
X143300709Y-118701337D01*
G37*
D13*
%TO.C,D8*%
X119500000Y-111750000D02*
X120000001Y-112650000D01*
X120000001Y-112650000D02*
X120500000Y-111750000D01*
X120500000Y-111750000D02*
X119500000Y-111750000D01*
X120500000Y-112750000D02*
X119500000Y-112750000D01*
D14*
G36*
X120799699Y-115448438D02*
G01*
X119199450Y-115448440D01*
X119199450Y-114885870D01*
X120799699Y-114885868D01*
X120799699Y-115448438D01*
G37*
G36*
X120800709Y-115451337D02*
G01*
X119348567Y-115451338D01*
X119199708Y-115451338D01*
X119199707Y-109199780D01*
X119348568Y-109199780D01*
X119348569Y-115303025D01*
X120649231Y-115303025D01*
X120649232Y-109199781D01*
X119348568Y-109199780D01*
X119199707Y-109199780D01*
X119199707Y-109051471D01*
X120800708Y-109051470D01*
X120800709Y-115451337D01*
G37*
D13*
%TO.C,SW15*%
X143499999Y-96000000D02*
X144500001Y-96000000D01*
X143500000Y-110000001D02*
X143500000Y-108999999D01*
X143500001Y-97000000D02*
X143499999Y-96000000D01*
X143515000Y-99190000D02*
X143515001Y-108080000D01*
X143515001Y-108080000D02*
X143896001Y-108080001D01*
X143896000Y-110000000D02*
X143500000Y-110000001D01*
X146055001Y-96650001D02*
X146436001Y-96650000D01*
X146944000Y-108080000D02*
X147324999Y-108080000D01*
X147960001Y-105286000D02*
X147959999Y-102999999D01*
X149864999Y-97031001D02*
X149865000Y-96650000D01*
X149865000Y-96650000D02*
X149483999Y-96649999D01*
X149865001Y-100540655D02*
X149864999Y-98808999D01*
X156500000Y-96000001D02*
X157500000Y-95999999D01*
X157499999Y-109000000D02*
X157500001Y-110000000D01*
X157500000Y-95999999D02*
X157500000Y-97000001D01*
X157500001Y-110000000D02*
X156499999Y-110000000D01*
X143515000Y-99190000D02*
G75*
G02*
X146055001Y-96650000I2540000J0D01*
G01*
X147959999Y-102999999D02*
G75*
G02*
X149864999Y-100540657I2540003J-5D01*
G01*
D15*
%TO.C,JP2*%
X149500000Y-123100000D02*
X151500000Y-123100000D01*
X149500000Y-125900000D02*
X149500000Y-123100000D01*
X151500000Y-123100000D02*
X151500000Y-125900000D01*
X151500000Y-125900000D02*
X149500000Y-125900000D01*
D13*
%TO.C,SW4*%
X124499999Y-56000000D02*
X125500001Y-56000000D01*
X124500000Y-70000001D02*
X124500000Y-68999999D01*
X124500001Y-57000000D02*
X124499999Y-56000000D01*
X124515000Y-59190000D02*
X124515001Y-68080000D01*
X124515001Y-68080000D02*
X124896001Y-68080001D01*
X124896000Y-70000000D02*
X124500000Y-70000001D01*
X127055001Y-56650001D02*
X127436001Y-56650000D01*
X127944000Y-68080000D02*
X128324999Y-68080000D01*
X128960001Y-65286000D02*
X128959999Y-62999999D01*
X130864999Y-57031001D02*
X130865000Y-56650000D01*
X130865000Y-56650000D02*
X130483999Y-56649999D01*
X130865001Y-60540655D02*
X130864999Y-58808999D01*
X137500000Y-56000001D02*
X138500000Y-55999999D01*
X138499999Y-69000000D02*
X138500001Y-70000000D01*
X138500000Y-55999999D02*
X138500000Y-57000001D01*
X138500001Y-70000000D02*
X137499999Y-70000000D01*
X124515000Y-59190000D02*
G75*
G02*
X127055001Y-56650000I2540000J0D01*
G01*
X128959999Y-62999999D02*
G75*
G02*
X130864999Y-60540657I2540003J-5D01*
G01*
%TO.C,D12*%
X129500000Y-114500000D02*
X130000001Y-115400000D01*
X130000001Y-115400000D02*
X130500000Y-114500000D01*
X130500000Y-114500000D02*
X129500000Y-114500000D01*
X130500000Y-115500000D02*
X129500000Y-115500000D01*
D14*
G36*
X130799699Y-118198438D02*
G01*
X129199450Y-118198440D01*
X129199450Y-117635870D01*
X130799699Y-117635868D01*
X130799699Y-118198438D01*
G37*
G36*
X130800709Y-118201337D02*
G01*
X129348567Y-118201338D01*
X129199708Y-118201338D01*
X129199707Y-111949780D01*
X129348568Y-111949780D01*
X129348569Y-118053025D01*
X130649231Y-118053025D01*
X130649232Y-111949781D01*
X129348568Y-111949780D01*
X129199707Y-111949780D01*
X129199707Y-111801471D01*
X130800708Y-111801470D01*
X130800709Y-118201337D01*
G37*
D13*
%TO.C,D3*%
X107000000Y-108500000D02*
X107500001Y-109400000D01*
X107500001Y-109400000D02*
X108000000Y-108500000D01*
X108000000Y-108500000D02*
X107000000Y-108500000D01*
X108000000Y-109500000D02*
X107000000Y-109500000D01*
D14*
G36*
X108299699Y-112198438D02*
G01*
X106699450Y-112198440D01*
X106699450Y-111635870D01*
X108299699Y-111635868D01*
X108299699Y-112198438D01*
G37*
G36*
X108300709Y-112201337D02*
G01*
X106848567Y-112201338D01*
X106699708Y-112201338D01*
X106699707Y-105949780D01*
X106848568Y-105949780D01*
X106848569Y-112053025D01*
X108149231Y-112053025D01*
X108149232Y-105949781D01*
X106848568Y-105949780D01*
X106699707Y-105949780D01*
X106699707Y-105801471D01*
X108300708Y-105801470D01*
X108300709Y-112201337D01*
G37*
D13*
%TO.C,D13*%
X132000000Y-114500000D02*
X132500001Y-115400000D01*
X132500001Y-115400000D02*
X133000000Y-114500000D01*
X133000000Y-114500000D02*
X132000000Y-114500000D01*
X133000000Y-115500000D02*
X132000000Y-115500000D01*
D14*
G36*
X133299699Y-118198438D02*
G01*
X131699450Y-118198440D01*
X131699450Y-117635870D01*
X133299699Y-117635868D01*
X133299699Y-118198438D01*
G37*
G36*
X133300709Y-118201337D02*
G01*
X131848567Y-118201338D01*
X131699708Y-118201338D01*
X131699707Y-111949780D01*
X131848568Y-111949780D01*
X131848569Y-118053025D01*
X133149231Y-118053025D01*
X133149232Y-111949781D01*
X131848568Y-111949780D01*
X131699707Y-111949780D01*
X131699707Y-111801471D01*
X133300708Y-111801470D01*
X133300709Y-118201337D01*
G37*
D13*
%TO.C,SW6*%
X67499998Y-81999999D02*
X68500003Y-82000000D01*
X67499999Y-96000002D02*
X67500000Y-94999997D01*
X67500001Y-83000000D02*
X67499998Y-81999999D01*
X68500000Y-95999999D02*
X67499999Y-96000002D01*
X75134998Y-91459344D02*
X75135001Y-93191002D01*
X75135000Y-95350000D02*
X75516001Y-95350003D01*
X75135003Y-94968998D02*
X75135000Y-95350000D01*
X77040000Y-86713998D02*
X77040004Y-89000001D01*
X78056000Y-83920000D02*
X77675003Y-83920001D01*
X78944999Y-95349999D02*
X78564000Y-95350002D01*
X81104000Y-82000000D02*
X81500001Y-81999998D01*
X81485000Y-83919998D02*
X81103999Y-83919999D01*
X81485000Y-92810000D02*
X81485000Y-83919998D01*
X81499999Y-95000000D02*
X81500002Y-96000001D01*
X81500001Y-81999998D02*
X81500000Y-83000003D01*
X81500002Y-96000001D02*
X80499997Y-96000000D01*
X77040004Y-89000001D02*
G75*
G02*
X75135002Y-91459342I-2540014J15D01*
G01*
X81485000Y-92810000D02*
G75*
G02*
X78944999Y-95350000I-2540000J0D01*
G01*
%TO.C,D6*%
X114500000Y-109750000D02*
X115000001Y-110650000D01*
X115000001Y-110650000D02*
X115500000Y-109750000D01*
X115500000Y-109750000D02*
X114500000Y-109750000D01*
X115500000Y-110750000D02*
X114500000Y-110750000D01*
D14*
G36*
X115799699Y-113448438D02*
G01*
X114199450Y-113448440D01*
X114199450Y-112885870D01*
X115799699Y-112885868D01*
X115799699Y-113448438D01*
G37*
G36*
X115800709Y-113451337D02*
G01*
X114348567Y-113451338D01*
X114199708Y-113451338D01*
X114199707Y-107199780D01*
X114348568Y-107199780D01*
X114348569Y-113303025D01*
X115649231Y-113303025D01*
X115649232Y-107199781D01*
X114348568Y-107199780D01*
X114199707Y-107199780D01*
X114199707Y-107051471D01*
X115800708Y-107051470D01*
X115800709Y-113451337D01*
G37*
D13*
%TO.C,D11*%
X127000000Y-114500000D02*
X127500001Y-115400000D01*
X127500001Y-115400000D02*
X128000000Y-114500000D01*
X128000000Y-114500000D02*
X127000000Y-114500000D01*
X128000000Y-115500000D02*
X127000000Y-115500000D01*
D14*
G36*
X128299699Y-118198438D02*
G01*
X126699450Y-118198440D01*
X126699450Y-117635870D01*
X128299699Y-117635868D01*
X128299699Y-118198438D01*
G37*
G36*
X128300709Y-118201337D02*
G01*
X126848567Y-118201338D01*
X126699708Y-118201338D01*
X126699707Y-111949780D01*
X126848568Y-111949780D01*
X126848569Y-118053025D01*
X128149231Y-118053025D01*
X128149232Y-111949781D01*
X126848568Y-111949780D01*
X126699707Y-111949780D01*
X126699707Y-111801471D01*
X128300708Y-111801470D01*
X128300709Y-118201337D01*
G37*
D13*
%TO.C,D16*%
X139500000Y-114000000D02*
X140000001Y-114900000D01*
X140000001Y-114900000D02*
X140500000Y-114000000D01*
X140500000Y-114000000D02*
X139500000Y-114000000D01*
X140500000Y-115000000D02*
X139500000Y-115000000D01*
D14*
G36*
X140799699Y-117698438D02*
G01*
X139199450Y-117698440D01*
X139199450Y-117135870D01*
X140799699Y-117135868D01*
X140799699Y-117698438D01*
G37*
G36*
X140800709Y-117701337D02*
G01*
X139348567Y-117701338D01*
X139199708Y-117701338D01*
X139199707Y-111449780D01*
X139348568Y-111449780D01*
X139348569Y-117553025D01*
X140649231Y-117553025D01*
X140649232Y-111449781D01*
X139348568Y-111449780D01*
X139199707Y-111449780D01*
X139199707Y-111301471D01*
X140800708Y-111301470D01*
X140800709Y-117701337D01*
G37*
D13*
%TO.C,D2*%
X104500000Y-108500000D02*
X105000001Y-109400000D01*
X105000001Y-109400000D02*
X105500000Y-108500000D01*
X105500000Y-108500000D02*
X104500000Y-108500000D01*
X105500000Y-109500000D02*
X104500000Y-109500000D01*
D14*
G36*
X105799699Y-112198438D02*
G01*
X104199450Y-112198440D01*
X104199450Y-111635870D01*
X105799699Y-111635868D01*
X105799699Y-112198438D01*
G37*
G36*
X105800709Y-112201337D02*
G01*
X104348567Y-112201338D01*
X104199708Y-112201338D01*
X104199707Y-105949780D01*
X104348568Y-105949780D01*
X104348569Y-112053025D01*
X105649231Y-112053025D01*
X105649232Y-105949781D01*
X104348568Y-105949780D01*
X104199707Y-105949780D01*
X104199707Y-105801471D01*
X105800708Y-105801470D01*
X105800709Y-112201337D01*
G37*
D13*
%TO.C,D18*%
X144500000Y-116000000D02*
X145000001Y-116900000D01*
X145000001Y-116900000D02*
X145500000Y-116000000D01*
X145500000Y-116000000D02*
X144500000Y-116000000D01*
X145500000Y-117000000D02*
X144500000Y-117000000D01*
D14*
G36*
X145799699Y-119698438D02*
G01*
X144199450Y-119698440D01*
X144199450Y-119135870D01*
X145799699Y-119135868D01*
X145799699Y-119698438D01*
G37*
G36*
X145800709Y-119701337D02*
G01*
X144348567Y-119701338D01*
X144199708Y-119701338D01*
X144199707Y-113449780D01*
X144348568Y-113449780D01*
X144348569Y-119553025D01*
X145649231Y-119553025D01*
X145649232Y-113449781D01*
X144348568Y-113449780D01*
X144199707Y-113449780D01*
X144199707Y-113301471D01*
X145800708Y-113301470D01*
X145800709Y-119701337D01*
G37*
D13*
%TO.C,SW5*%
X143499999Y-58000000D02*
X144500001Y-58000000D01*
X143500000Y-72000001D02*
X143500000Y-70999999D01*
X143500001Y-59000000D02*
X143499999Y-58000000D01*
X143515000Y-61190000D02*
X143515001Y-70080000D01*
X143515001Y-70080000D02*
X143896001Y-70080001D01*
X143896000Y-72000000D02*
X143500000Y-72000001D01*
X146055001Y-58650001D02*
X146436001Y-58650000D01*
X146944000Y-70080000D02*
X147324999Y-70080000D01*
X147960001Y-67286000D02*
X147959999Y-64999999D01*
X149864999Y-59031001D02*
X149865000Y-58650000D01*
X149865000Y-58650000D02*
X149483999Y-58649999D01*
X149865001Y-62540655D02*
X149864999Y-60808999D01*
X156500000Y-58000001D02*
X157500000Y-57999999D01*
X157499999Y-71000000D02*
X157500001Y-72000000D01*
X157500000Y-57999999D02*
X157500000Y-59000001D01*
X157500001Y-72000000D02*
X156499999Y-72000000D01*
X143515000Y-61190000D02*
G75*
G02*
X146055001Y-58650000I2540000J0D01*
G01*
X147959999Y-64999999D02*
G75*
G02*
X149864999Y-62540657I2540003J-5D01*
G01*
%TO.C,SW18*%
X153499999Y-125000000D02*
X154500001Y-125000000D01*
X153500000Y-139000001D02*
X153500000Y-137999999D01*
X153500001Y-126000000D02*
X153499999Y-125000000D01*
X153515000Y-128190000D02*
X153515001Y-137080000D01*
X153515001Y-137080000D02*
X153896001Y-137080001D01*
X153896000Y-139000000D02*
X153500000Y-139000001D01*
X156055001Y-125650001D02*
X156436001Y-125650000D01*
X156944000Y-137080000D02*
X157324999Y-137080000D01*
X157960001Y-134286000D02*
X157959999Y-131999999D01*
X159864999Y-126031001D02*
X159865000Y-125650000D01*
X159865000Y-125650000D02*
X159483999Y-125649999D01*
X159865001Y-129540655D02*
X159864999Y-127808999D01*
X166500000Y-125000001D02*
X167500000Y-124999999D01*
X167499999Y-138000000D02*
X167500001Y-139000000D01*
X167500000Y-124999999D02*
X167500000Y-126000001D01*
X167500001Y-139000000D02*
X166499999Y-139000000D01*
X153515000Y-128190000D02*
G75*
G02*
X156055001Y-125650000I2540000J0D01*
G01*
X157959999Y-131999999D02*
G75*
G02*
X159864999Y-129540657I2540003J-5D01*
G01*
%TO.C,SW11*%
X67499999Y-100999999D02*
X68500004Y-101000000D01*
X67500000Y-115000002D02*
X67500001Y-113999997D01*
X67500002Y-102000000D02*
X67499999Y-100999999D01*
X68500001Y-114999999D02*
X67500000Y-115000002D01*
X75134999Y-110459344D02*
X75135002Y-112191002D01*
X75135001Y-114350000D02*
X75516002Y-114350003D01*
X75135004Y-113968998D02*
X75135001Y-114350000D01*
X77040001Y-105713998D02*
X77040005Y-108000001D01*
X78056001Y-102920000D02*
X77675004Y-102920001D01*
X78945000Y-114349999D02*
X78564001Y-114350002D01*
X81104001Y-101000000D02*
X81500002Y-100999998D01*
X81485001Y-102919998D02*
X81104000Y-102919999D01*
X81485001Y-111810000D02*
X81485001Y-102919998D01*
X81500000Y-114000000D02*
X81500003Y-115000001D01*
X81500002Y-100999998D02*
X81500001Y-102000003D01*
X81500003Y-115000001D02*
X80499998Y-115000000D01*
X77040005Y-108000001D02*
G75*
G02*
X75135003Y-110459342I-2540014J15D01*
G01*
X81485001Y-111810000D02*
G75*
G02*
X78945000Y-114350000I-2540000J0D01*
G01*
%TO.C,SW14*%
X124499999Y-94000000D02*
X125500001Y-94000000D01*
X124500000Y-108000001D02*
X124500000Y-106999999D01*
X124500001Y-95000000D02*
X124499999Y-94000000D01*
X124515000Y-97190000D02*
X124515001Y-106080000D01*
X124515001Y-106080000D02*
X124896001Y-106080001D01*
X124896000Y-108000000D02*
X124500000Y-108000001D01*
X127055001Y-94650001D02*
X127436001Y-94650000D01*
X127944000Y-106080000D02*
X128324999Y-106080000D01*
X128960001Y-103286000D02*
X128959999Y-100999999D01*
X130864999Y-95031001D02*
X130865000Y-94650000D01*
X130865000Y-94650000D02*
X130483999Y-94649999D01*
X130865001Y-98540655D02*
X130864999Y-96808999D01*
X137500000Y-94000001D02*
X138500000Y-93999999D01*
X138499999Y-107000000D02*
X138500001Y-108000000D01*
X138500000Y-93999999D02*
X138500000Y-95000001D01*
X138500001Y-108000000D02*
X137499999Y-108000000D01*
X124515000Y-97190000D02*
G75*
G02*
X127055001Y-94650000I2540000J0D01*
G01*
X128959999Y-100999999D02*
G75*
G02*
X130864999Y-98540657I2540003J-5D01*
G01*
%TO.C,SW2*%
X86500003Y-54000008D02*
X87500005Y-54000008D01*
X86500004Y-68000009D02*
X86500004Y-67000007D01*
X86500005Y-55000008D02*
X86500003Y-54000008D01*
X87500004Y-68000007D02*
X86500004Y-68000009D01*
X94135003Y-63459353D02*
X94135005Y-65191009D01*
X94135004Y-67350008D02*
X94516005Y-67350009D01*
X94135005Y-66969007D02*
X94135004Y-67350008D01*
X96040003Y-58714008D02*
X96040005Y-61000009D01*
X97056004Y-55920008D02*
X96675005Y-55920008D01*
X97945003Y-67350007D02*
X97564003Y-67350008D01*
X100104004Y-54000008D02*
X100500004Y-54000007D01*
X100485003Y-55920008D02*
X100104003Y-55920007D01*
X100485004Y-64810008D02*
X100485003Y-55920008D01*
X100500003Y-67000008D02*
X100500005Y-68000008D01*
X100500004Y-54000007D02*
X100500004Y-55000009D01*
X100500005Y-68000008D02*
X99500003Y-68000008D01*
X96040005Y-61000009D02*
G75*
G02*
X94135005Y-63459351I-2540003J5D01*
G01*
X100485004Y-64810008D02*
G75*
G02*
X97945003Y-67350008I-2540000J0D01*
G01*
%TO.C,SW13*%
X105500003Y-89000008D02*
X106500005Y-89000008D01*
X105500004Y-103000009D02*
X105500004Y-102000007D01*
X105500005Y-90000008D02*
X105500003Y-89000008D01*
X106500004Y-103000007D02*
X105500004Y-103000009D01*
X113135003Y-98459353D02*
X113135005Y-100191009D01*
X113135004Y-102350008D02*
X113516005Y-102350009D01*
X113135005Y-101969007D02*
X113135004Y-102350008D01*
X115040003Y-93714008D02*
X115040005Y-96000009D01*
X116056004Y-90920008D02*
X115675005Y-90920008D01*
X116945003Y-102350007D02*
X116564003Y-102350008D01*
X119104004Y-89000008D02*
X119500004Y-89000007D01*
X119485003Y-90920008D02*
X119104003Y-90920007D01*
X119485004Y-99810008D02*
X119485003Y-90920008D01*
X119500003Y-102000008D02*
X119500005Y-103000008D01*
X119500004Y-89000007D02*
X119500004Y-90000009D01*
X119500005Y-103000008D02*
X118500003Y-103000008D01*
X115040005Y-96000009D02*
G75*
G02*
X113135005Y-98459351I-2540003J5D01*
G01*
X119485004Y-99810008D02*
G75*
G02*
X116945003Y-102350008I-2540000J0D01*
G01*
%TO.C,D10*%
X124500000Y-113750000D02*
X125000001Y-114650000D01*
X125000001Y-114650000D02*
X125500000Y-113750000D01*
X125500000Y-113750000D02*
X124500000Y-113750000D01*
X125500000Y-114750000D02*
X124500000Y-114750000D01*
D14*
G36*
X125799699Y-117448438D02*
G01*
X124199450Y-117448440D01*
X124199450Y-116885870D01*
X125799699Y-116885868D01*
X125799699Y-117448438D01*
G37*
G36*
X125800709Y-117451337D02*
G01*
X124348567Y-117451338D01*
X124199708Y-117451338D01*
X124199707Y-111199780D01*
X124348568Y-111199780D01*
X124348569Y-117303025D01*
X125649231Y-117303025D01*
X125649232Y-111199781D01*
X124348568Y-111199780D01*
X124199707Y-111199780D01*
X124199707Y-111051471D01*
X125800708Y-111051470D01*
X125800709Y-117451337D01*
G37*
D13*
%TO.C,SW17*%
X134499999Y-122000000D02*
X135500001Y-122000000D01*
X134500000Y-136000001D02*
X134500000Y-134999999D01*
X134500001Y-123000000D02*
X134499999Y-122000000D01*
X134515000Y-125190000D02*
X134515001Y-134080000D01*
X134515001Y-134080000D02*
X134896001Y-134080001D01*
X134896000Y-136000000D02*
X134500000Y-136000001D01*
X137055001Y-122650001D02*
X137436001Y-122650000D01*
X137944000Y-134080000D02*
X138324999Y-134080000D01*
X138960001Y-131286000D02*
X138959999Y-128999999D01*
X140864999Y-123031001D02*
X140865000Y-122650000D01*
X140865000Y-122650000D02*
X140483999Y-122649999D01*
X140865001Y-126540655D02*
X140864999Y-124808999D01*
X147500000Y-122000001D02*
X148500000Y-121999999D01*
X148499999Y-135000000D02*
X148500001Y-136000000D01*
X148500000Y-121999999D02*
X148500000Y-123000001D01*
X148500001Y-136000000D02*
X147499999Y-136000000D01*
X134515000Y-125190000D02*
G75*
G02*
X137055001Y-122650000I2540000J0D01*
G01*
X138959999Y-128999999D02*
G75*
G02*
X140864999Y-126540657I2540003J-5D01*
G01*
%TO.C,SW7*%
X86500003Y-73000008D02*
X87500005Y-73000008D01*
X86500004Y-87000009D02*
X86500004Y-86000007D01*
X86500005Y-74000008D02*
X86500003Y-73000008D01*
X87500004Y-87000007D02*
X86500004Y-87000009D01*
X94135003Y-82459353D02*
X94135005Y-84191009D01*
X94135004Y-86350008D02*
X94516005Y-86350009D01*
X94135005Y-85969007D02*
X94135004Y-86350008D01*
X96040003Y-77714008D02*
X96040005Y-80000009D01*
X97056004Y-74920008D02*
X96675005Y-74920008D01*
X97945003Y-86350007D02*
X97564003Y-86350008D01*
X100104004Y-73000008D02*
X100500004Y-73000007D01*
X100485003Y-74920008D02*
X100104003Y-74920007D01*
X100485004Y-83810008D02*
X100485003Y-74920008D01*
X100500003Y-86000008D02*
X100500005Y-87000008D01*
X100500004Y-73000007D02*
X100500004Y-74000009D01*
X100500005Y-87000008D02*
X99500003Y-87000008D01*
X96040005Y-80000009D02*
G75*
G02*
X94135005Y-82459351I-2540003J5D01*
G01*
X100485004Y-83810008D02*
G75*
G02*
X97945003Y-86350008I-2540000J0D01*
G01*
%TO.C,SW12*%
X86500003Y-92000008D02*
X87500005Y-92000008D01*
X86500004Y-106000009D02*
X86500004Y-105000007D01*
X86500005Y-93000008D02*
X86500003Y-92000008D01*
X87500004Y-106000007D02*
X86500004Y-106000009D01*
X94135003Y-101459353D02*
X94135005Y-103191009D01*
X94135004Y-105350008D02*
X94516005Y-105350009D01*
X94135005Y-104969007D02*
X94135004Y-105350008D01*
X96040003Y-96714008D02*
X96040005Y-99000009D01*
X97056004Y-93920008D02*
X96675005Y-93920008D01*
X97945003Y-105350007D02*
X97564003Y-105350008D01*
X100104004Y-92000008D02*
X100500004Y-92000007D01*
X100485003Y-93920008D02*
X100104003Y-93920007D01*
X100485004Y-102810008D02*
X100485003Y-93920008D01*
X100500003Y-105000008D02*
X100500005Y-106000008D01*
X100500004Y-92000007D02*
X100500004Y-93000009D01*
X100500005Y-106000008D02*
X99500003Y-106000008D01*
X96040005Y-99000009D02*
G75*
G02*
X94135005Y-101459351I-2540003J5D01*
G01*
X100485004Y-102810008D02*
G75*
G02*
X97945003Y-105350008I-2540000J0D01*
G01*
%TO.C,J1*%
X147900000Y-119050000D02*
X147900000Y-112950000D01*
X160000000Y-112950000D02*
X147900000Y-112950000D01*
X160000000Y-113200000D02*
X162000000Y-113200000D01*
X160000000Y-118800000D02*
X162000000Y-118800000D01*
X160000000Y-119050000D02*
X147900000Y-119050000D01*
X160000000Y-119050000D02*
X160000000Y-112950000D01*
X162000000Y-118800000D02*
X162000000Y-113200000D01*
%TO.C,SW8*%
X105500003Y-70000008D02*
X106500005Y-70000008D01*
X105500004Y-84000009D02*
X105500004Y-83000007D01*
X105500005Y-71000008D02*
X105500003Y-70000008D01*
X106500004Y-84000007D02*
X105500004Y-84000009D01*
X113135003Y-79459353D02*
X113135005Y-81191009D01*
X113135004Y-83350008D02*
X113516005Y-83350009D01*
X113135005Y-82969007D02*
X113135004Y-83350008D01*
X115040003Y-74714008D02*
X115040005Y-77000009D01*
X116056004Y-71920008D02*
X115675005Y-71920008D01*
X116945003Y-83350007D02*
X116564003Y-83350008D01*
X119104004Y-70000008D02*
X119500004Y-70000007D01*
X119485003Y-71920008D02*
X119104003Y-71920007D01*
X119485004Y-80810008D02*
X119485003Y-71920008D01*
X119500003Y-83000008D02*
X119500005Y-84000008D01*
X119500004Y-70000007D02*
X119500004Y-71000009D01*
X119500005Y-84000008D02*
X118500003Y-84000008D01*
X115040005Y-77000009D02*
G75*
G02*
X113135005Y-79459351I-2540003J5D01*
G01*
X119485004Y-80810008D02*
G75*
G02*
X116945003Y-83350008I-2540000J0D01*
G01*
%TO.C,D5*%
X112000000Y-109000000D02*
X112500001Y-109900000D01*
X112500001Y-109900000D02*
X113000000Y-109000000D01*
X113000000Y-109000000D02*
X112000000Y-109000000D01*
X113000000Y-110000000D02*
X112000000Y-110000000D01*
D14*
G36*
X113299699Y-112698438D02*
G01*
X111699450Y-112698440D01*
X111699450Y-112135870D01*
X113299699Y-112135868D01*
X113299699Y-112698438D01*
G37*
G36*
X113300709Y-112701337D02*
G01*
X111848567Y-112701338D01*
X111699708Y-112701338D01*
X111699707Y-106449780D01*
X111848568Y-106449780D01*
X111848569Y-112553025D01*
X113149231Y-112553025D01*
X113149232Y-106449781D01*
X111848568Y-106449780D01*
X111699707Y-106449780D01*
X111699707Y-106301471D01*
X113300708Y-106301470D01*
X113300709Y-112701337D01*
G37*
D13*
%TO.C,D15*%
X137000000Y-114000000D02*
X137500001Y-114900000D01*
X137500001Y-114900000D02*
X138000000Y-114000000D01*
X138000000Y-114000000D02*
X137000000Y-114000000D01*
X138000000Y-115000000D02*
X137000000Y-115000000D01*
D14*
G36*
X138299699Y-117698438D02*
G01*
X136699450Y-117698440D01*
X136699450Y-117135870D01*
X138299699Y-117135868D01*
X138299699Y-117698438D01*
G37*
G36*
X138300709Y-117701337D02*
G01*
X136848567Y-117701338D01*
X136699708Y-117701338D01*
X136699707Y-111449780D01*
X136848568Y-111449780D01*
X136848569Y-117553025D01*
X138149231Y-117553025D01*
X138149232Y-111449781D01*
X136848568Y-111449780D01*
X136699707Y-111449780D01*
X136699707Y-111301471D01*
X138300708Y-111301470D01*
X138300709Y-117701337D01*
G37*
D13*
%TO.C,D4*%
X109500000Y-108500000D02*
X110000001Y-109400000D01*
X110000001Y-109400000D02*
X110500000Y-108500000D01*
X110500000Y-108500000D02*
X109500000Y-108500000D01*
X110500000Y-109500000D02*
X109500000Y-109500000D01*
D14*
G36*
X110799699Y-112198438D02*
G01*
X109199450Y-112198440D01*
X109199450Y-111635870D01*
X110799699Y-111635868D01*
X110799699Y-112198438D01*
G37*
G36*
X110800709Y-112201337D02*
G01*
X109348567Y-112201338D01*
X109199708Y-112201338D01*
X109199707Y-105949780D01*
X109348568Y-105949780D01*
X109348569Y-112053025D01*
X110649231Y-112053025D01*
X110649232Y-105949781D01*
X109348568Y-105949780D01*
X109199707Y-105949780D01*
X109199707Y-105801471D01*
X110800708Y-105801470D01*
X110800709Y-112201337D01*
G37*
D13*
%TO.C,SW1*%
X67499996Y-62999998D02*
X68500001Y-62999999D01*
X67499997Y-77000001D02*
X67499998Y-75999996D01*
X67499999Y-63999999D02*
X67499996Y-62999998D01*
X68499998Y-76999998D02*
X67499997Y-77000001D01*
X75134996Y-72459343D02*
X75134999Y-74191001D01*
X75134998Y-76349999D02*
X75515999Y-76350002D01*
X75135001Y-75968997D02*
X75134998Y-76349999D01*
X77039998Y-67713997D02*
X77040002Y-70000000D01*
X78055998Y-64919999D02*
X77675001Y-64920000D01*
X78944997Y-76349998D02*
X78563998Y-76350001D01*
X81103998Y-62999999D02*
X81499999Y-62999997D01*
X81484998Y-64919997D02*
X81103997Y-64919998D01*
X81484998Y-73809999D02*
X81484998Y-64919997D01*
X81499997Y-75999999D02*
X81500000Y-77000000D01*
X81499999Y-62999997D02*
X81499998Y-64000002D01*
X81500000Y-77000000D02*
X80499995Y-76999999D01*
X77040002Y-70000000D02*
G75*
G02*
X75135000Y-72459341I-2540014J15D01*
G01*
X81484998Y-73809999D02*
G75*
G02*
X78944997Y-76349999I-2540000J0D01*
G01*
%TO.C,SW3*%
X105500003Y-51000008D02*
X106500005Y-51000008D01*
X105500004Y-65000009D02*
X105500004Y-64000007D01*
X105500005Y-52000008D02*
X105500003Y-51000008D01*
X106500004Y-65000007D02*
X105500004Y-65000009D01*
X113135003Y-60459353D02*
X113135005Y-62191009D01*
X113135004Y-64350008D02*
X113516005Y-64350009D01*
X113135005Y-63969007D02*
X113135004Y-64350008D01*
X115040003Y-55714008D02*
X115040005Y-58000009D01*
X116056004Y-52920008D02*
X115675005Y-52920008D01*
X116945003Y-64350007D02*
X116564003Y-64350008D01*
X119104004Y-51000008D02*
X119500004Y-51000007D01*
X119485003Y-52920008D02*
X119104003Y-52920007D01*
X119485004Y-61810008D02*
X119485003Y-52920008D01*
X119500003Y-64000008D02*
X119500005Y-65000008D01*
X119500004Y-51000007D02*
X119500004Y-52000009D01*
X119500005Y-65000008D02*
X118500003Y-65000008D01*
X115040005Y-58000009D02*
G75*
G02*
X113135005Y-60459351I-2540003J5D01*
G01*
X119485004Y-61810008D02*
G75*
G02*
X116945003Y-64350008I-2540000J0D01*
G01*
%TO.C,SW10*%
X143499999Y-77000000D02*
X144500001Y-77000000D01*
X143500000Y-91000001D02*
X143500000Y-89999999D01*
X143500001Y-78000000D02*
X143499999Y-77000000D01*
X143515000Y-80190000D02*
X143515001Y-89080000D01*
X143515001Y-89080000D02*
X143896001Y-89080001D01*
X143896000Y-91000000D02*
X143500000Y-91000001D01*
X146055001Y-77650001D02*
X146436001Y-77650000D01*
X146944000Y-89080000D02*
X147324999Y-89080000D01*
X147960001Y-86286000D02*
X147959999Y-83999999D01*
X149864999Y-78031001D02*
X149865000Y-77650000D01*
X149865000Y-77650000D02*
X149483999Y-77649999D01*
X149865001Y-81540655D02*
X149864999Y-79808999D01*
X156500000Y-77000001D02*
X157500000Y-76999999D01*
X157499999Y-90000000D02*
X157500001Y-91000000D01*
X157500000Y-76999999D02*
X157500000Y-78000001D01*
X157500001Y-91000000D02*
X156499999Y-91000000D01*
X143515000Y-80190000D02*
G75*
G02*
X146055001Y-77650000I2540000J0D01*
G01*
X147959999Y-83999999D02*
G75*
G02*
X149864999Y-81540657I2540003J-5D01*
G01*
%TD*%
M02*
